<?xml version="1.0" encoding="utf-8"?><svg viewBox="0 0 848 642" xmlns="http://www.w3.org/2000/svg" xmlns:xlink="http://www.w3.org/1999/xlink"><style>:root>svg{display:none}:root>svg:target{display:block}</style><svg fill="none" viewBox="0 0 16 16" id="arrow" xmlns="http://www.w3.org/2000/svg"><path fill-rule="evenodd" clip-rule="evenodd" d="M7.295 15.295a.997.997 0 0 0 1.411-1.41L3.83 9H15a1 1 0 1 0 0-2H3.83l4.876-4.885A.997.997 0 0 0 7.295.705L0 8l7.295 7.295Z" fill="#000" fill-opacity=".7"/></svg><svg fill="none" viewBox="0 0 116 28" id="decathlon" xmlns="http://www.w3.org/2000/svg"><path d="M115.886-.254H0v28.508h115.886V-.254Z" fill="#8F90A6"/><path fill-rule="evenodd" clip-rule="evenodd" d="m46.296 6.468-5.659 9.6c-.116.211-1.236 1.853-3.515 2.008-2.26.096-4.172-1.97-4.133-4.192.077-2.201 1.776-3.978 4.036-4.017 1.932.039 3.342 1.468 3.322 1.487.406.348.676.6.985 1.043L43.4 8.901c-.367-.367-.522-.54-.985-.869-1.178-1.023-2.897-1.835-5.312-1.912-2.317-.038-4.674.889-6.47 3.148-1.12 1.43-1.564 2.724-1.622 4.616.02 2.222.85 4.018 2.066 5.312 2.086 2.105 4.597 2.607 5.93 2.607 1.931-.077 3.341-.54 4.674-1.39.425-.29.87-.657 1.352-1.14h3.592v2.183h3.69V6.468h-4.018Zm.367 9.676h-1.97l1.97-3.399v3.4ZM53.964 21.553v-11.53h-2.898V6.525h9.735v3.496h-2.994v11.53h-3.843ZM69.24 15.797H65.3v5.756h-3.823V6.526H65.3v5.698h3.94V6.526h3.863v15.027H69.24v-5.756ZM104.972 6.526v8.344l-5.755-8.344h-3.458v5.08c-.386-1.159-1.081-2.221-2.047-3.129a8.171 8.171 0 0 0-5.601-2.221c-2.221 0-4.172.734-5.717 2.202-1.545 1.448-2.376 3.36-2.376 5.427 0 1.642.425 3.09 1.236 4.346h-2.936V6.526h-3.824v15.027H82.8v-1.584c1.449 1.236 3.245 1.854 5.292 1.854 2.183 0 4.269-.83 5.775-2.337.889-.869 1.507-1.912 1.893-3.052v5.119h3.844V13.19l5.852 8.363h3.38V6.526h-3.863Zm-16.9 11.57c-2.163 0-4.133-1.816-4.133-4.192 0-2.202 1.835-3.96 4.172-3.96 2.202 0 4.036 1.758 4.036 3.96.02 2.473-1.815 4.192-4.075 4.192Z" fill="#fff"/><path fill-rule="evenodd" clip-rule="evenodd" d="M29.029 9.77V6.448h-8.537v6.18c-.251-1.796-1.005-3.244-2.183-4.326-1.641-1.487-3.38-1.796-5.871-1.796h-5.37v15.027h5.891c2.202 0 3.69-.29 5.37-1.855 1.178-1.12 1.912-2.53 2.163-4.19v5.967h8.537V18.23h-4.77v-2.781h4.132v-3.226h-4.133V9.79h4.77v-.02Zm-16.572 8.48h-1.545v-8.5h1.526c2.82 0 4.345 1.527 4.345 4.23 0 2.956-1.39 4.27-4.326 4.27Z" fill="#fff"/></svg><svg fill="none" viewBox="0 0 100 28" id="dekoria" xmlns="http://www.w3.org/2000/svg"><g clip-path="url(#ca)" fill="#8F90A6"><path d="m64.47 22.038-4.69-6.327 4.69-6.326h-3.318l-4.714 6.326V5.171h-2.62v16.864h2.62V15.71l4.714 6.327h3.318ZM37.093 5.172V10.5a5.83 5.83 0 0 0-3.426-1.115c-3.338 0-6.044 2.832-6.044 6.325 0 3.493 2.706 6.325 6.044 6.325a5.831 5.831 0 0 0 3.426-1.115v1.115h2.62V5.172h-2.62Zm-3.426 14.123c-1.892 0-3.426-1.605-3.426-3.585s1.534-3.586 3.426-3.586c1.892 0 3.426 1.605 3.426 3.586 0 1.98-1.534 3.585-3.426 3.585Z"/><path d="M69.337 9.385c-3.338 0-6.044 2.832-6.044 6.325 0 3.493 2.706 6.325 6.044 6.325 3.338 0 6.044-2.832 6.044-6.325 0-3.494-2.706-6.325-6.044-6.325Zm0 9.91c-1.892 0-3.426-1.605-3.426-3.586 0-1.98 1.534-3.585 3.426-3.585 1.892 0 3.426 1.605 3.426 3.585s-1.534 3.586-3.426 3.586ZM96.745 9.388V10.5a5.834 5.834 0 0 0-3.426-1.115c-3.338 0-6.044 2.832-6.044 6.325 0 3.493 2.706 6.325 6.044 6.325a5.835 5.835 0 0 0 3.426-1.115v1.115h2.62V9.388h-2.62Zm-3.426 9.907c-1.892 0-3.426-1.605-3.426-3.586 0-1.98 1.534-3.585 3.426-3.585 1.892 0 3.426 1.605 3.426 3.585s-1.534 3.586-3.426 3.586ZM78.908 15.62H76.29v6.415h2.62V15.62Z"/><path d="M76.293 15.711h2.617c.001-1.979 1.534-3.583 3.425-3.584v-2.74c-3.337.001-6.041 2.832-6.042 6.324ZM86.165 9.388h-2.62v12.647h2.62V9.388ZM84.86 7.927c.728 0 1.317-.617 1.317-1.378 0-.76-.59-1.377-1.316-1.377-.727 0-1.316.617-1.316 1.377s.59 1.378 1.316 1.378ZM49.187 18.241a3.332 3.332 0 0 1-2.422 1.054c-1.504 0-2.778-1.014-3.239-2.424h9.179c.067-.377.103-.764.103-1.161 0-3.493-2.705-6.325-6.043-6.325-2.817 0-5.184 2.016-5.854 4.745h-.001v.003a6.618 6.618 0 0 0-.19 1.577c0 3.493 2.707 6.325 6.045 6.325 2.477 0 4.605-1.561 5.538-3.794h-3.116Zm-2.422-6.116c1.349 0 2.513.818 3.071 2.005h-6.143c.558-1.187 1.722-2.005 3.072-2.005ZM.473-.203V28.81h7.655V26.07H3.093V2.539h17.936v23.53H13.37v-3.297h-2.62v3.298h-.003v2.741H23.65V-.203"/><path d="M16.641 8.275c-.452.093-1.278.366-1.278.366s-.149-.442-.63-.957c-.97-1.04-2.664-2.056-2.664-2.056s-1.694 1.016-2.665 2.056c-.48.515-.63.957-.63.957s-.825-.273-1.278-.366C6.412 8.05 5.539 8.05 5.539 8.05l.004 6.54c0 3.09 2.439 6.54 6.526 6.54s6.525-3.45 6.525-6.54l.004-6.54s-.873 0-1.957.225Zm-5.2.803c.262-.26.628-.508.628-.508s.365.248.628.508c.264.26.45.556.45.556s-.406.214-.623.381a3.96 3.96 0 0 0-.406.367v-.002s-.278-.212-.505-.365c-.226-.152-.623-.38-.623-.38s.187-.297.45-.557Zm-3.46 1.914s1.256.482 2.09.969c.199.116.417.252.634.392-1.177 2.043-2.049 4.481-2.056 4.501-.666-1.08-.667-2.27-.667-2.27v-3.592Zm8.175 3.592s0 3.99-4.087 3.99c-1.855 0-2.866-.822-3.42-1.72.013-.024 1.265-2.374 5.418-4.893.825-.5 2.089-.969 2.089-.969v3.592Z"/></g><defs><clipPath id="ca"><path fill="#fff" transform="translate(0 -1)" d="M0 0h100v30H0z"/></clipPath></defs></svg><svg fill="none" viewBox="0 0 142 28" id="dominos" xmlns="http://www.w3.org/2000/svg"><path d="M141.122 17.517c-.209-1.055-1.158-1.816-2.171-1.74-1.133.086-1.987.926-2.042 2.03a2.152 2.152 0 0 0 1.823 2.296c1.012.17 2.019-.485 2.342-1.51.035-.114 0-.251.11-.342v-.565c-.062-.04-.05-.108-.062-.169Zm-2.089 2.267a1.828 1.828 0 0 1-1.293-3.123 1.828 1.828 0 0 1 3.123 1.294 1.83 1.83 0 0 1-1.83 1.83ZM46.46 13.033c-1.619-1.124-3.443-1.582-5.383-1.608-2.374-.03-4.75 0-7.124 0-.559 0-.661.1-.661.648v15.573c0 .503.128.628.628.628h6.906c.89.003 1.776-.1 2.64-.31 2.658-.658 4.643-2.137 5.687-4.724.62-1.535.735-3.143.522-4.768-.298-2.264-1.317-4.118-3.214-5.44Zm-2.988 9.715c-.747.74-1.676 1.037-2.701 1.068-.742.023-1.485 0-2.228 0-.177 0-.232-.048-.232-.228.007-2.506.007-5.013 0-7.52 0-.161.047-.213.212-.21.43.011.859 0 1.288 0 .731 0 1.465-.034 2.182.162 1.556.407 2.521 1.6 2.656 3.292.105 1.315-.219 2.484-1.177 3.434v.002ZM83.02 15.914c-1.851-.443-3.496 0-4.897 1.296-.209.194-.389.417-.59.637-.427-1.086-1.193-1.756-2.316-1.973-1.916-.368-3.593.13-5.04 1.457-.014-.02-.023-.026-.023-.034v-.69c0-.405-.146-.552-.544-.553h-3.39c-.4 0-.548.14-.548.548v11.122c0 .403.149.541.557.541h3.295c.507 0 .63-.121.63-.623v-6.639c0-.121-.028-.244.07-.354.347-.392.744-.72 1.27-.81 1.048-.191 1.832.191 1.815 1.457-.025 2.131 0 4.262 0 6.393 0 .464.128.589.598.589h3.264c.494 0 .607-.113.607-.605v-6.639a.529.529 0 0 1 .11-.406 2.58 2.58 0 0 1 .986-.701c1.228-.456 2.094.136 2.105 1.432v6.391c0 .38.135.53.486.531h3.484c.324 0 .486-.162.486-.485 0-2.904.016-5.807 0-8.71-.037-1.632-.93-2.814-2.416-3.172ZM26.362 5.329 20.83-.307a.957.957 0 0 0-.748-.31c-.423-.03-.682.264-.954.543l-4.21 4.297c-1.39 1.418-2.78 2.836-4.172 4.252-.128.128-.162.199-.012.345 3.078 3.13 6.15 6.26 9.22 9.39.213.22.294.095.43-.045 2.823-2.882 5.646-5.762 8.468-8.64.528-.539.525-1.133-.01-1.67-.83-.837-1.652-1.686-2.48-2.526ZM20.1 11.067a2.395 2.395 0 1 1 .043-4.79 2.395 2.395 0 0 1-.043 4.79ZM19.4 18.798c-.212-.199-.408-.42-.612-.628-2.85-2.9-5.698-5.8-8.546-8.705-.183-.187-.277-.215-.486-.01a1270.017 1270.017 0 0 1-5.464 5.577c-1.017 1.036-2.039 2.07-3.049 3.114-.486.497-.47 1.08.008 1.58.217.227.444.442.664.667l7.391 7.55a1.033 1.033 0 0 0 .765.314 1.1 1.1 0 0 0 .764-.367c1.333-1.36 2.667-2.717 4-4.072 1.525-1.552 3.05-3.101 4.576-4.649.156-.157.13-.236-.01-.37ZM6.576 21.276a2.385 2.385 0 1 1 2.35-2.41 2.34 2.34 0 0 1-2.35 2.413v-.003Zm6.906.113a2.37 2.37 0 0 1-2.318-2.382 2.335 2.335 0 1 1 2.318 2.382ZM107.2 19.154c-.06-1.667-1.108-2.937-2.733-3.26-1.99-.397-3.797 0-5.343 1.507v-.797c0-.42-.125-.547-.536-.547h-3.36c-.424 0-.572.14-.572.555v11.091c0 .421.144.566.562.566h3.327c.455 0 .579-.122.579-.57 0-2.14.016-4.281-.012-6.422a1.103 1.103 0 0 1 .509-1.022c.092-.068.187-.132.286-.19 1.457-.831 2.843-.046 2.843 1.618v5.954c0 .526.112.635.648.635h3.266c.427 0 .555-.128.555-.562v-4.762c-.001-1.266.028-2.53-.019-3.794ZM57.762 15.702c-3.481-.162-6.477 2.6-6.6 6.21-.115 3.363 2.335 6.389 5.889 6.666 3.468.268 6.53-2.453 6.747-6.017.222-3.658-2.508-6.695-6.036-6.859Zm1.867 6.419c-.067 1.251-1.043 2.168-2.251 2.105a2.183 2.183 0 1 1 2.25-2.105ZM114.648 15.766c-3.219.387-5.565 3.112-5.565 6.447a5.8 5.8 0 0 0 .206 1.637c.809 3.198 4.093 5.301 7.261 4.65a6.449 6.449 0 0 0 4.281-3.027 6.425 6.425 0 0 0 .612-5.207c-.864-2.863-3.586-4.885-6.795-4.5Zm.746 8.5a2.192 2.192 0 0 1-2.14-2.187 2.195 2.195 0 0 1 2.129-2.199 2.196 2.196 0 0 1 2.14 2.188 2.19 2.19 0 0 1-2.129 2.199ZM134.507 21.104c-.876-.427-1.823-.584-2.775-.724-.63-.092-1.271-.123-1.88-.333-.162-.059-.335-.14-.347-.358a.47.47 0 0 1 .292-.444 1.81 1.81 0 0 1 .809-.19 5.145 5.145 0 0 1 3.273.97c.314.216.536.163.724-.17.382-.671.759-1.343 1.133-2.017.18-.324.125-.518-.185-.709a8.848 8.848 0 0 0-4.321-1.334c-1.307-.062-2.591.02-3.808.567-1.335.6-2.168 1.577-2.206 3.099-.04 1.61.684 2.752 2.149 3.427.921.425 1.911.593 2.901.753.608.099 1.225.162 1.804.38.238.093.476.22.458.527-.017.308-.264.385-.485.465-.43.137-.883.189-1.333.152-1.295-.07-2.448-.572-3.551-1.213-.388-.227-.565-.19-.793.196-.421.708-.84 1.418-1.257 2.13-.233.398-.195.584.196.827a10.123 10.123 0 0 0 4.778 1.457c1.296.026 2.277-.059 3.227-.343 1.888-.567 2.951-1.782 3.121-3.563.16-1.622-.514-2.862-1.924-3.552ZM91.677 16.057h-3.262c-.538 0-.664.125-.664.66V27.52c0 .648.094.75.733.75h3.203c.415 0 .567-.149.568-.565V16.619c-.004-.412-.16-.562-.578-.562ZM122.837 10.16a2.476 2.476 0 0 0-2.074 2.779c.152.994.895 1.718 2.006 1.907.256.044.225.13.149.3a1.658 1.658 0 0 1-.63.719.276.276 0 0 0-.157.186.278.278 0 0 0 .047.24c.427.66.345.692 1.02.359l.084-.04c1.519-.828 2.438-2.049 2.526-3.516.008-1.965-1.359-3.173-2.971-2.934ZM90.118 10.068a2.56 2.56 0 1 0 2.511 2.562 2.535 2.535 0 0 0-2.51-2.562ZM20.742 25.374c-.243.027-.575-.207-.719.209-.162.44-.332.874-.52 1.363l-.425-1.124c-.183-.485-.183-.47-.71-.464-.19 0-.254.056-.25.249.009.7.014 1.399 0 2.105 0 .254.12.247.305.259.225.013.255-.088.251-.275-.011-.47 0-.94 0-1.41.231.47.438.95.62 1.44.04.098.04.233.203.24.163.006.184-.14.227-.25.189-.485.372-.961.556-1.444.042.48.055.96.04 1.441 0 .217.079.263.275.256.196-.006.314 0 .307-.254-.018-.669 0-1.336-.011-2.005-.007-.127.097-.364-.15-.336ZM17.593 25.356c-.523.015-1.046.011-1.567 0-.19 0-.253.052-.253.246s.05.295.261.269c.083-.011.162 0 .251 0 .178-.02.24.055.232.231-.013.27 0 .543 0 .81s.011.564 0 .845c-.013.248.162.191.291.196.13.005.29.03.282-.207-.015-.449 0-.897 0-1.347 0-.506 0-.515.516-.527.19 0 .225-.08.222-.246-.003-.165-.011-.275-.235-.27Z" fill="#8F90A6"/><path d="M139.987 17.265c-.086-.353-.398-.552-.874-.554h-.692c-.144 0-.202.042-.202.196v2.105c0 .11 0 .204.162.202.162-.001.215-.035.205-.192a4.639 4.639 0 0 1 0-.5c.008-.101-.069-.255.107-.282.141-.021.285-.033.379.136.109.2.259.38.366.583.126.242.298.314.58.208l-.598-.924c.488-.238.669-.555.567-.978Zm-1.041.628c-.399.034-.394-.175-.365-.382 0-.531-.055-.476.418-.486.434 0 .632.131.638.425.007.293-.201.403-.691.443Z" fill="#8F90A6"/></svg><svg viewBox="0 0 9 18" id="facebook" xmlns="http://www.w3.org/2000/svg"><path d="M6.953 2.89h1.553V.187C8.238.15 7.316.066 6.243.066c-2.239 0-3.772 1.409-3.772 3.997v2.382H0V9.47h2.47v7.607H5.5V9.47h2.37l.377-3.023H5.499V4.363c0-.874.236-1.472 1.454-1.472Z"/></svg><svg fill="none" viewBox="0 0 124 28" id="heineken" xmlns="http://www.w3.org/2000/svg"><g clip-path="url(#fa)" fill="#8F90A6"><path d="M94.432 12.738h-3.008c-.725 0-1.28.191-1.854.886l-4.25 5.136v-6.022h-4.173v15.39a.9.9 0 0 0 .245.617.819.819 0 0 0 .588.258h3.337v-7.377l3.68 6.031c.549.901 1.093 1.346 2.344 1.346h3.428l-5.853-9.597 5.516-6.668ZM76.786 12.738h-9.29v14.808c0 .81.759 1.46 1.566 1.46h7.724a.818.818 0 0 0 .59-.258.9.9 0 0 0 .245-.618v-2.103h-5.33a.618.618 0 0 1-.443-.197.68.68 0 0 1-.183-.467v-3.421h4.75v-2.97h-4.75v-3.255h5.956V13.62a.9.9 0 0 0-.246-.618.818.818 0 0 0-.59-.257M106.135 12.738h-9.291v14.808c0 .81.759 1.46 1.566 1.46h7.725a.816.816 0 0 0 .589-.258.898.898 0 0 0 .244-.618v-2.103h-5.329a.619.619 0 0 1-.442-.197.68.68 0 0 1-.183-.467v-3.421h4.75v-2.97h-4.75v-3.255h5.954V13.62a.898.898 0 0 0-.244-.618.816.816 0 0 0-.589-.257M47.006 12.738h-4.174v15.39c.001.232.09.454.246.617a.82.82 0 0 0 .589.258h3.337l.002-16.265ZM38.204 12.738h-9.292v14.808c0 .845.765 1.46 1.567 1.46h7.725a.818.818 0 0 0 .589-.259.9.9 0 0 0 .245-.617v-2.103h-5.332a.618.618 0 0 1-.442-.197.68.68 0 0 1-.183-.467v-3.421h4.749v-2.97h-4.746v-3.255h5.954V13.62a.9.9 0 0 0-.245-.617.818.818 0 0 0-.589-.258M24.7 12.738h-4.175v6.236h-3.643v-6.236H12.04v.64c.202.091.374.244.492.438a1.2 1.2 0 0 1 .175.652V29h4.174v-7.056h3.648V29h4.174L24.7 12.738ZM63.283 12.738v15.39a.9.9 0 0 1-.245.617.819.819 0 0 1-.588.258h-2.56l-5.632-9.32c.078.577.117 1.16.117 1.743v7.577h-3.117V12.738h2.024c1.032 0 1.783.447 2.323 1.339.46.756 4.717 7.784 4.717 7.784s-.153-.48-.153-1.762v-7.36h3.114ZM123.185 12.738v.64c-.2.095-.368.248-.486.442-.117.193-.178.419-.176.648v13.658a.895.895 0 0 1-.243.616.813.813 0 0 1-.587.258h-2.556l-5.633-9.32c.078.577.117 1.16.117 1.743V29h-3.117V12.738h2.024c1.031 0 1.783.447 2.323 1.339.46.756 4.716 7.784 4.716 7.784s-.152-.48-.152-1.762v-7.36h3.77Z"/><path d="M4.27 18.66a.245.245 0 0 1-.318.02.266.266 0 0 1-.097-.147.278.278 0 0 1 .013-.176c.113-.361 2.21-7.134 2.21-7.134L.293 6.815a.262.262 0 0 1-.11-.134.278.278 0 0 1-.004-.177.264.264 0 0 1 .103-.14.244.244 0 0 1 .164-.042h7.148S9.694-.444 9.804-.808a.268.268 0 0 1 .088-.153.246.246 0 0 1 .32 0 .268.268 0 0 1 .088.153c.111.362 2.21 7.129 2.21 7.129h7.146a.244.244 0 0 1 .165.04.264.264 0 0 1 .102.141.277.277 0 0 1-.004.177.262.262 0 0 1-.11.135L16.36 9.445h-4.08l-1.266-4.07-1.264 4.07H5.676l3.303 2.52-1.265 4.07-3.444 2.624Z"/></g><defs><clipPath id="fa"><path fill="#fff" transform="translate(.185 -1)" d="M0 0h123v30H0z"/></clipPath></defs></svg><svg fill="none" viewBox="0 0 848 642" id="hero_home" xmlns="http://www.w3.org/2000/svg"><path opacity=".5" d="M437 550.964c129.787 0 235-108.563 235-242.482C672 174.563 566.787 66 437 66S202 174.563 202 308.482c0 133.919 105.213 242.482 235 242.482Z" stroke="#fff" stroke-width="88"/><path d="m456.898 323.617 13.604.187.215-14.249-13.549-1.857-.27 15.919ZM502.701 319.893l13.618-2.708-2.841-13.965-13.919 1.056 3.142 15.617Z" fill="#BF0830"/><path d="M480.656 200.304c-.508 14.706-2.713 72.273-7.351 109.896a4.98 4.98 0 0 1-4.977 4.346 38.964 38.964 0 0 1-11.037-1.638 4.975 4.975 0 0 1-3.577-4.661l-1.889-114.548a4.945 4.945 0 0 1 .059-.833l.087-.567a5.025 5.025 0 0 1 2.465-3.534 5.037 5.037 0 0 1 4.296-.331l18.708 7.086a4.942 4.942 0 0 1 3.216 4.784Z" fill="#1A2578"/><path d="M500.344 193.672a576.772 576.772 0 0 0 4.437 61.455c2.324 17.894 8.961 36.479 10.036 52.068a4.187 4.187 0 0 1-3.321 4.364 38.64 38.64 0 0 1-12.611.631 4.214 4.214 0 0 1-3.66-3.202l-14.587-49.324-8.842-49.859-9.478-27.12 38.026 10.987Z" fill="#2836A5"/><path d="M470.813 325.505h-11.93l-4.839-5.196-8.847 5.196h-1.903a1.37 1.37 0 0 0-1.372 1.07 1.345 1.345 0 0 0 1.331 1.606h27.738a.373.373 0 0 0 .371-.366v-1.779a.54.54 0 0 0-.341-.495.528.528 0 0 0-.208-.036Z" fill="#AE253D"/><path d="M470.708 325.52v-4.826s-2.012-2.667-5.068-1.308c0 0-4.629 3.239-8.691-.677l-10.127 4.428s-2.777.915-3.527 2.383h27.413Z" fill="#1F1587"/><path d="m516.967 318.041-11.468 3.252-6.102-3.659-7.044 7.405-1.83.517a1.37 1.37 0 0 0-1.025 1.409 1.381 1.381 0 0 0 .592.991 1.374 1.374 0 0 0 1.138.189l26.658-7.565a.379.379 0 0 0 .222-.176.376.376 0 0 0 .03-.282l-.499-1.715a.542.542 0 0 0-.672-.366Z" fill="#AE253D"/><path d="m516.867 318.08-1.373-4.638s-2.676-2.013-5.233.128c0 0-3.54 4.373-8.558 1.72l-8.49 7.017s-2.415 1.637-2.744 3.256l26.398-7.483Z" fill="#1F1587"/><path d="M452.777 130.912s-6.656-11.083-7.25-12.807c-1.341-3.87-4.931-39.417-4.931-39.417l10.699-.754 5.946 27.999 7.978 17.459-12.442 7.52Z" fill="#BF0830"/><path d="M439.343 66.512a1.05 1.05 0 0 1 1.312.576l1.4 3.106a.237.237 0 0 0 .252.147.244.244 0 0 0 .184-.109.238.238 0 0 0 .039-.102.238.238 0 0 0-.008-.11l-1.441-4.825a.828.828 0 0 1 .745-1.102 1.34 1.34 0 0 1 1.345.914l1.469 4.917a.245.245 0 0 0 .26.178h.083a.248.248 0 0 0 .218-.172c.01-.031.013-.064.01-.097l-.535-5.672a1.06 1.06 0 0 1 .86-1.148 1.03 1.03 0 0 1 1.185.914l.54 5.71a.237.237 0 0 0 .087.169.24.24 0 0 0 .182.054l.266-.023a.251.251 0 0 0 .228-.242l.197-5.32a1.05 1.05 0 0 1 .997-1.025 1.024 1.024 0 0 1 1.057 1.066s.137 8.129.265 9.396l2.287-1.894a1.033 1.033 0 0 1 .695-.369 1.02 1.02 0 0 1 .751.232 1.043 1.043 0 0 1 .369.696 1.02 1.02 0 0 1-.232.754l-3.604 5.558c-.234.283-.975.356-1.583.27-5.983 1.029-6.912 1.138-8.549 1.266l-.389-6.477a15.495 15.495 0 0 0-1.331-5.411l-.197-.43a1.026 1.026 0 0 1 .586-1.395ZM513.444 137.742s8.618-9.638 9.524-11.207c2.04-3.549 12.241-37.787 12.241-37.787l-10.366-2.745-11.106 26.384-11.12 15.671 10.827 9.684Z" fill="#BF0830"/><path d="M538.708 77.01a1.047 1.047 0 0 0-1.395.316l-1.958 2.79a.238.238 0 0 1-.274.097.248.248 0 0 1-.16-.14.245.245 0 0 1 .009-.213l2.319-4.469a.84.84 0 0 0 .046-.743.843.843 0 0 0-.568-.483 1.336 1.336 0 0 0-1.491.64l-2.365 4.575a.257.257 0 0 1-.292.128l-.083-.027a.238.238 0 0 1-.15-.117.243.243 0 0 1-.019-.19l1.587-5.489a1.044 1.044 0 0 0-.627-1.285 1.026 1.026 0 0 0-1.143.308c-.09.108-.157.234-.197.369l-1.596 5.489a.257.257 0 0 1-.311.174l-.256-.078a.25.25 0 0 1-.142-.104.25.25 0 0 1-.037-.17l.81-5.265a1.056 1.056 0 0 0-.791-1.194 1.031 1.031 0 0 0-1.24.846s-1.661 7.96-2.022 9.185l-1.894-2.287a1.031 1.031 0 0 0-1.399-.403 1.032 1.032 0 0 0-.403 1.395l2.498 6.14c.178.324.887.53 1.5.562 5.686 2.131 6.578 2.415 8.165 2.845l1.596-6.29a15.512 15.512 0 0 1 2.324-5.063l.27-.385a1.031 1.031 0 0 0 .162-.799 1.02 1.02 0 0 0-.473-.664ZM482.742 111.72l-3.041 7.776s-1.139 2.594 1.038 3.824l-2.607 4.931c-.673 1.244.425 1.217 1.527 2.104a7.643 7.643 0 0 0 2.045 1.185c2.635 1.029 4.835-.389 5.439-1.29.604-.901 1.788-5.883 1.788-5.883l.988-2.287 3.202-9.107-10.379-1.253Z" fill="#BF0830"/><path d="M487.582 118.1c.015.007.03.011.046.011a.107.107 0 0 0 .046-.011.118.118 0 0 0 .064-.155s-.915-2.155-2.745-1.583a.12.12 0 0 0-.022.22.12.12 0 0 0 .091.009c1.61-.508 2.411 1.372 2.443 1.445a.098.098 0 0 0 .031.042.099.099 0 0 0 .046.022ZM483.314 115.677a.122.122 0 0 0 .1 0 .119.119 0 0 0 .056-.07.123.123 0 0 0-.01-.09c-.027-.055-.727-1.372-1.61-1.052a.12.12 0 0 0-.066.061.122.122 0 0 0-.007.09.118.118 0 0 0 .151.073c.695-.242 1.317.915 1.326.938a.118.118 0 0 0 .06.05ZM492.654 113.307l-2.855 1.885s-6.404 0-8.27-3.692c-1.866-3.691-.494-4.574.842-5.516.658-.458 3.133-.993 5.127 1.024 1.094 1.103 2.745-.265 3.943 1.213 1.199 1.477 2.416 3.709 1.976 4.231-.439.521-.763.855-.763.855Z" fill="#090028"/><path d="M492.971 112.163s2.585.869 2.338 3.586c-.247 2.717-1.697 3.623-2.004 4.337-.306.713-1.729 5.818-5.032 4.116l2.233-8.466 2.461-2.745.004-.828Z" fill="#090028"/><path d="M487.957 118.626a2.124 2.124 0 0 0 2.828 2.719 2.124 2.124 0 0 0 .887-3.161 2.125 2.125 0 0 0-3.27-.255 2.133 2.133 0 0 0-.445.697Z" fill="#BF0830"/><path d="M489.605 120.667c.18.065.377.069.56.013a.89.89 0 0 0 .455-.328.828.828 0 0 0 .041-1.025.998.998 0 0 0-1.052-.366.978.978 0 0 1 .59-.334c.33-.017.655.085.915.288a.063.063 0 0 0 .04.007.062.062 0 0 0 .035-.022.053.053 0 0 0 .013-.038.054.054 0 0 0-.015-.038 1.43 1.43 0 0 0-.988-.311 1.141 1.141 0 0 0-.786.521l-.124.174.197-.087a.919.919 0 0 1 1.098.279.725.725 0 0 1-.042.883.753.753 0 0 1-.878.274c-.007-.002-.014-.004-.022-.004a.05.05 0 0 0-.021.005.046.046 0 0 0-.018.013.041.041 0 0 0-.012.019.043.043 0 0 0-.006.022.05.05 0 0 0 .004.024.064.064 0 0 0 .013.019c.006.006.013.01.021.012h-.018ZM486.956 123.188s-1.876 4.35-7.548 2.621l1.331-2.471s3.294 2.114 6.217-.15Z" fill="#AE253D"/><path d="M479.801 118.128s-2.781 4.995.654 6.555c4.908 2.228 6.514-.458 7.726-2.671l1.94-4.817.384-1.468c-.51.264-.924.684-1.18 1.198-.554 1.116-2.031 4.117-2.374 4.167-.494.037-6.171-3.17-7.15-2.964Z" fill="#090028"/><path d="M483.159 119.446c.011.006.023.01.035.01a.067.067 0 0 0 .034-.01.06.06 0 0 0 .014-.067.056.056 0 0 0-.014-.02l-.956-.791 1.372-2.457a.058.058 0 0 0-.023-.077.053.053 0 0 0-.022-.008.05.05 0 0 0-.024.002.067.067 0 0 0-.021.01.065.065 0 0 0-.015.018l-1.404 2.539 1.034.856-.01-.005Z" fill="#AE253D"/><path d="M483.593 120.85c-.027 0-2.149-.914-2.149-.914s-.078.988.709 1.322c.786.333 1.44-.408 1.44-.408Z" fill="#FBFDFC"/><path d="M451.834 78.392s6.065 27.756 5.85 27.473c-.215-.284 11.015 19.857 12.776 20.694 1.761.837 25.703 2.287 25.703 2.287l16.952-16.01 11.006-26.297c2.854.073 11.078 3.998 11.078 3.998l-11.014 34.777a9.641 9.641 0 0 1-2.265 3.792c-4.514 4.648-17.203 17.817-18.228 19.917-1.244 2.557-2.982 56.72-2.982 56.72-40.597-.174-49.48-9.935-49.48-9.935s4.853-53.18 4.954-55.929c0 0-6.546-11.761-8.691-16.312a63.142 63.142 0 0 1-2.589-5.777c-1.002-2.685-4.853-38.492-4.853-38.492 3.362-1.194 11.783-.906 11.783-.906Z" fill="#FCE6CF"/><path d="M468.338 201.705c2.621-32.866 13.672-73.06 13.782-73.462l-.695-.183c-.11.402-11.18 40.66-13.81 73.599l.723.046Z" fill="#F7546C" style="mix-blend-mode:multiply" opacity=".5"/><path d="M482.34 128.091a17.639 17.639 0 0 1-2.287 2.374c-12.867 12.158-36.507-1.77-31.178 20.328 1.679-3.129 1.862-7.923 5.37-10.032a4.587 4.587 0 0 1 1.606-.585c9.203-1.514 22.189.714 26.489-12.085Z" fill="#090028"/><path d="m482.518 130.002-1.39.773-1.011-.361-.398-1.967 1.509-1.002 1.473.444-.183 2.113Z" fill="#090028"/><path d="m482.02 127.057-2.562-1.34-1.239 1.825 1.518 2.228 2.036-1.629.746 2.324 6.184-2.113-.329-1.771-6.354.476Z" fill="#F7546C"/><path d="M500.716 203.556s-35.469.631-49.31-9.853l-.197 2.287s5.151 5.338 21.334 7.982c16.184 2.644 28.173 1.757 28.173 1.757v-2.173Z" fill="#090028"/><path d="m472.024 201.209-.658 2.576a.458.458 0 0 1-.545.334l-6.545-1.459a.463.463 0 0 1-.358-.391.451.451 0 0 1 .015-.186l.754-2.543a.466.466 0 0 1 .208-.265.463.463 0 0 1 .332-.051l6.45 1.423a.467.467 0 0 1 .294.207.458.458 0 0 1 .053.355Z" fill="#BF0830"/><path d="M590.324 328.094H423.689a9.308 9.308 0 0 0-9.308 9.308v362.993a9.308 9.308 0 0 0 9.308 9.309h166.635a9.31 9.31 0 0 0 9.309-9.309V337.402a9.308 9.308 0 0 0-9.309-9.308Z" fill="#A22641"/><path d="M545.305 328.094H378.67a9.308 9.308 0 0 0-9.309 9.308v362.993a9.31 9.31 0 0 0 9.309 9.309h166.635a9.308 9.308 0 0 0 9.308-9.309V337.402a9.308 9.308 0 0 0-9.308-9.308Z" fill="#C43F5C"/><path d="M387.479 443.378v256.459c0 5.443-3.009 9.858-6.715 9.858H260.563c-3.71 0-6.715-4.415-6.715-9.858V443.378c0-5.443 3.005-9.857 6.715-9.857h120.201c3.687 0 6.715 4.414 6.715 9.857Z" fill="#0B1249"/><path d="M355.003 443.378v256.459c0 5.443-3.005 9.858-6.715 9.858H228.086c-3.705 0-6.715-4.415-6.715-9.858V443.378c0-5.443 3.01-9.857 6.715-9.857h120.202c3.71 0 6.715 4.414 6.715 9.857Z" fill="#1A2578"/><path d="M183.173 433.953a21.795 21.795 0 0 0 6.795-1.887l4.323 3.835 3.116-2.431 3.115-2.431-2.681-5.126a21.737 21.737 0 0 0 3.475-6.131l5.771-.343.482-3.923.483-3.922-5.514-1.734a21.76 21.76 0 0 0-1.88-6.797l3.835-4.322-2.431-3.115-2.421-3.115-5.124 2.681a21.712 21.712 0 0 0-6.136-3.474l-.345-5.77-3.921-.483-3.928-.483-1.734 5.513a21.773 21.773 0 0 0-6.794 1.873l-4.323-3.835-3.117 2.431-3.116 2.431 2.68 5.126a21.695 21.695 0 0 0-3.473 6.136l-5.771.343-.482 3.923-.495 3.922 5.515 1.735a21.737 21.737 0 0 0 1.881 6.796l-3.832 4.323 2.432 3.115 2.431 3.114 5.125-2.672a21.717 21.717 0 0 0 6.136 3.48l.336 5.771 3.922.482 3.923.483 1.742-5.519Zm-16.221-16.465a14.831 14.831 0 0 1 3.688-16.057 14.824 14.824 0 0 1 22.736 2.923 14.822 14.822 0 0 1-.492 16.468 14.839 14.839 0 0 1-6.815 5.259 14.832 14.832 0 0 1-19.117-8.593ZM722.487 428.727c2.099.475 4.262.605 6.404.384l2.589 4.574 3.398-1.175 3.399-1.171-.787-5.201a19.739 19.739 0 0 0 4.799-4.254l5.068 1.404 1.573-3.229 1.574-3.234-4.231-3.12c.475-2.099.605-4.262.384-6.404l4.574-2.589-1.175-3.398-1.171-3.399-5.201.787a19.818 19.818 0 0 0-4.254-4.803l1.404-5.069-3.229-1.573-3.234-1.574-3.12 4.236a19.807 19.807 0 0 0-6.404-.389l-2.589-4.574-3.399 1.176-3.398 1.175.787 5.197a19.734 19.734 0 0 0-4.803 4.258l-5.069-1.409-1.573 3.234-1.574 3.234 4.236 3.12a19.807 19.807 0 0 0-.389 6.404l-4.574 2.589 1.175 3.399 1.176 3.398 5.196-.787a19.74 19.74 0 0 0 4.259 4.799l-1.427 5.068 3.234 1.574 3.234 1.573 3.138-4.231Zm-9.098-18.965a13.49 13.49 0 1 1 13.919 13.046 13.48 13.48 0 0 1-9.675-3.632 13.507 13.507 0 0 1-3.069-4.282 13.507 13.507 0 0 1-1.194-5.132h.019ZM257.531 324.463a32.709 32.709 0 0 0 9.894 3.883l1.743 8.536 5.947-.11 5.946-.114 1.418-8.6a32.74 32.74 0 0 0 9.739-4.254l7.268 4.808 4.117-4.291 4.117-4.291-5.078-7.081a32.885 32.885 0 0 0 3.884-9.898l8.535-1.739-.114-5.946-.11-5.947-8.599-1.413a32.7 32.7 0 0 0-4.254-9.743l4.807-7.269-4.291-4.116-4.295-4.117-7.081 5.082a32.701 32.701 0 0 0-9.894-3.884l-1.692-8.595-5.947.115-5.946.114-1.418 8.595a32.827 32.827 0 0 0-9.739 4.254l-7.268-4.803-4.117 4.291-4.117 4.29 5.078 7.081a32.765 32.765 0 0 0-3.879 9.899l-8.54 1.738.114 5.947.114 5.946 8.595 1.418a32.802 32.802 0 0 0 4.254 9.743l-4.807 7.269 4.295 4.117 4.291 4.116 7.03-5.031Zm-4.652-34.54a22.35 22.35 0 1 1 15.274 27.674 22.352 22.352 0 0 1-15.274-27.674Z" fill="#D95F76"/><path d="M557.816 215.948c10.809-.124 36.136 0 57.932 3.023 9.025 1.263 17.35-6.047 17.753-15.721.169-3.957-.878-8.627-4.012-14.011-12.053-20.731-36.415-2.699-36.836 7.501 0 0-3.714-15.552-18.1-13.59-14.386 1.963-10.791 24.55-10.791 24.55s-4.524-1.258-7.849.892c-3.326 2.15-1.908 7.401 1.903 7.356ZM242.358 184.894c10.8-.421 36.104-1.016 57.992 1.427 9.057 1.011 17.176-6.523 17.318-16.202.055-3.961-1.121-8.6-4.396-13.897-12.62-20.392-36.479-1.697-36.621 8.513 0 0-4.117-15.47-18.466-13.087-14.35 2.383-10.064 24.834-10.064 24.834s-4.574-1.13-7.822 1.107c-3.247 2.236-1.733 7.451 2.059 7.305ZM345.598 272.027c12.291-.974 42.275-2.918 60.38-.412a2.87 2.87 0 0 0 2.92-1.463 2.867 2.867 0 0 0-.335-3.248c-1.249-1.437-3.458-2.635-7.319-2.745 0 0 3.408-16.81-12.835-18.233-16.696-1.482-16.765 16.157-16.765 16.157s-9.839-9.149-14.455 2.342c0 0-10.342-4.401-14.953 1.239a3.913 3.913 0 0 0-.428 4.296 3.912 3.912 0 0 0 3.79 2.067Z" fill="#fff"/><path d="M710.831 500.068V699.45c0 5.663-2.946 10.255-6.577 10.255H586.49c-3.632 0-6.578-4.574-6.578-10.255V500.068c0-5.663 2.946-10.256 6.578-10.256h117.764c3.631 0 6.577 4.593 6.577 10.256Z" fill="#1A2578"/><path d="M679.031 500.068V699.45c0 5.663-2.941 10.255-6.577 10.255H554.671c-3.631 0-6.577-4.574-6.577-10.255V500.068c0-5.663 2.946-10.256 6.577-10.256h117.764c3.637 0 6.596 4.593 6.596 10.256Z" fill="#2836A5"/><path d="M294.397 571.158v70.992c0 5.444-3.119 9.858-6.971 9.858H162.627c-3.851 0-6.971-4.414-6.971-9.858v-70.992c0-5.443 3.12-9.857 6.971-9.857h124.799c3.852 0 6.971 4.414 6.971 9.857Z" fill="#A22641"/><path d="M260.683 570.858v70.992c0 5.443-3.12 9.857-6.972 9.857H128.913c-3.852 0-6.972-4.414-6.972-9.857v-70.992c0-5.444 3.12-9.858 6.972-9.858h124.798c3.852 0 6.972 4.414 6.972 9.858Z" fill="#C43F5C"/><path d="M311.069 358.237s1.34 10.9-.224 11.385c-1.564.485 4.08 12.305 6.825 5.192.965-2.484-2.415-16.467-6.642-18.599-4.227-2.132.041 2.022.041 2.022Z" fill="#090028"/><path d="M311.013 355.432s3.843 9.688 2.951 11.787a2.858 2.858 0 0 1-1.972 1.524l1.523 5.868-7.287.869-4.212-16.714s1.033-4.629 1.079-4.46c.046.17 7.918 1.126 7.918 1.126Z" fill="#FF6160"/><path d="M310.839 364.315a.062.062 0 0 1-.035-.008.05.05 0 0 1-.02-.029v-.087c.27-.16.325-.714.338-.915a1.923 1.923 0 0 1-1.056-1.02 2.806 2.806 0 0 1-.156-1.605c0-.032.037-.046.06-.032a.079.079 0 0 1 .032.086 2.738 2.738 0 0 0 .146 1.501 1.827 1.827 0 0 0 1.029.965h.046v.059c0 .032 0 .828-.389 1.043l.005.042ZM312.496 370.742l-.503-1.999s-3.431.654-5.837-.133c0 0 3.5 1.999 6.34 2.132Z" fill="#AE253D"/><path d="M305.359 362.101a.118.118 0 0 1-.096 0 .123.123 0 0 1-.039-.033.13.13 0 0 1-.024-.045.131.131 0 0 1-.004-.052.138.138 0 0 1 .017-.048s1.231-2.109 3.033-1.281a.14.14 0 0 1 .066.074.143.143 0 0 1-.002.1.127.127 0 0 1-.031.042.129.129 0 0 1-.045.027.13.13 0 0 1-.102-.005c-1.579-.728-2.644 1.098-2.69 1.175a.122.122 0 0 1-.083.046ZM310.556 360.51a.146.146 0 0 1-.11 0 .136.136 0 0 1-.053-.085.13.13 0 0 1 .021-.098c.037-.051.915-1.313 1.807-.874a.139.139 0 0 1 .066.075.14.14 0 0 1 .006.05.123.123 0 0 1-.013.049.12.12 0 0 1-.031.04.116.116 0 0 1-.043.025.126.126 0 0 1-.1-.006c-.677-.334-1.468.782-1.477.792a.15.15 0 0 1-.073.032Z" fill="#090028"/><path d="M309.219 365.33c.041 0 2.593-.325 2.593-.325s-.219 1.089-1.166 1.207c-.947.119-1.427-.882-1.427-.882Z" fill="#FBFDFC"/><path d="m307.984 356.356-2.287-1.981s3.175 1.075 2.964 1.198a4.476 4.476 0 0 0-.677.783Z" fill="#FF6160"/><path d="M302.573 356.448s1.372 3.627 10.521 2.255c0 0 .768-6.034-6.18-6.34-6.948-.307-6.358 4.826-6.235 4.748.124-.078 1.894-.663 1.894-.663Z" fill="#090028"/><path d="M304.403 358.227a35.02 35.02 0 0 0-1.418 4.812s6.711 14.963.458 15.516l-1.08.243c-5.356 1.194-4.4-11.235-5.768-17.382-.851-3.852 2.886-8.856 6.473-7.237 3.586 1.619 1.335 4.048 1.335 4.048Z" fill="#090028"/><path d="M304.97 364.59a2.057 2.057 0 0 1-3.049 2.272 2.063 2.063 0 0 1-.984-2.065 2.062 2.062 0 0 1 3.091-1.472 2.064 2.064 0 0 1 .942 1.265Z" fill="#FF6160"/><path d="M303.136 366.375a.862.862 0 0 1-.947-.43.817.817 0 0 1 .082-1.002.972.972 0 0 1 1.043-.238.918.918 0 0 0-.508-.366 1.28 1.28 0 0 0-.914.165.068.068 0 0 1-.05.01.072.072 0 0 1-.042-.028.068.068 0 0 1-.01-.05.072.072 0 0 1 .028-.042c.297-.186.654-.251.998-.183a1.11 1.11 0 0 1 .7.604l.109.206-.201-.119a.91.91 0 0 0-1.08.132.698.698 0 0 0-.068.842.734.734 0 0 0 .814.366c.015 0 .03.004.043.013a.068.068 0 0 1 .025.037.06.06 0 0 1-.002.044.07.07 0 0 1-.029.034l.009.005Z" fill="#AE253D"/><path d="M311.014 353.639s3.883 2.543 5.411 12.144l-4.35-8.796-1.061-3.348Z" fill="#090028"/><path d="m324.228 496.667-11.755-3.677 4.304-13.778 12.232 2.049-4.781 15.406ZM320.536 458.082l5.448-11.073-11.726-5.77-5.448 11.073 11.726 5.77Z" fill="#FF6160"/><path d="M305.953 437.983c.27 0 10.242 4.414 10.242 4.414l3.202 2.077s-4.858 33.076-5.759 41.909c0 0 7.031 4.958 14.148 5.137 0 0 14.693-51.209 14.693-57.713 0-6.505-31.247-21.915-31.247-21.915l-14.217 8.206s-21.366 1.756-26.279 5.086c-4.912 3.33 38.14 22.835 38.14 22.835l-2.923-10.036Z" fill="#FCE6CF"/><path d="M316.936 441.162s-24.12-14.381-32.408-16.623c-8.289-2.241-14.245-.347-15.146 2.287-.901 2.635-1.802 10.004 0 12.438 1.803 2.433 33.26 14.061 40.469 16.042 0-.019 6.417-7.475 7.085-14.144Z" fill="#FCE6CF"/><path d="M269.566 426.635a.286.286 0 0 1-.101 0 .232.232 0 0 1-.114-.132.23.23 0 0 1 .009-.175c.626-1.267 2.9-2.424 6.761-3.44a87.834 87.834 0 0 1 10.786-1.953c.054 0 5.626-.681 5.946-.457a.227.227 0 0 1 .064.315.241.241 0 0 1-.12.089.24.24 0 0 1-.15-.002c-1.143-.173-20.991 1.789-22.898 5.636a.245.245 0 0 1-.077.083.235.235 0 0 1-.106.036Z" fill="#090028"/><path d="M314.531 448.317a.233.233 0 0 1-.223-.18.227.227 0 0 1 .031-.172 16.423 16.423 0 0 0 2.388-7.008 220.283 220.283 0 0 0-33.461-17.766.23.23 0 0 1 .019-.402.227.227 0 0 1 .16-.014c19.774 8.457 33.51 17.784 33.648 17.88l.105.069v.128a16.542 16.542 0 0 1-2.47 7.355.233.233 0 0 1-.197.11Z" fill="#090028"/><path d="M287.561 424.984a.25.25 0 0 1-.183-.087 10.432 10.432 0 0 0-2.503-2.072.23.23 0 0 1 .229-.394c.988.584 1.878 1.32 2.635 2.182a.228.228 0 0 1 .045.169.227.227 0 0 1-.086.152.228.228 0 0 1-.137.05ZM337.178 457.667h-.055a.225.225 0 0 1-.141-.102.226.226 0 0 1-.028-.172c.05-.197 4.721-19.532 5.301-22.871.559-3.202-6.312-7.882-6.403-7.927a.221.221 0 0 1-.074-.062.225.225 0 0 1-.01-.27.232.232 0 0 1 .256-.09.219.219 0 0 1 .084.047c.292.196 7.181 4.894 6.573 8.38-.581 3.343-5.256 22.697-5.306 22.871a.23.23 0 0 1-.197.196ZM322.242 446.424a.225.225 0 0 1-.124-.037l-5.549-3.545a.251.251 0 0 1-.065-.061.231.231 0 0 1-.037-.172.231.231 0 0 1 .263-.184.244.244 0 0 1 .082.033l5.553 3.545a.23.23 0 0 1-.123.421Z" fill="#090028"/><path d="M327.785 491.75h-.027c-.412-.055-10.123-1.405-14.277-5.192l-.086-.082v-.119l4.194-31.105 1.244-11.056a.214.214 0 0 1 .025-.086.215.215 0 0 1 .227-.115.227.227 0 0 1 .201.251l-1.244 11.065-4.176 30.977c4.116 3.637 13.841 4.99 13.937 5.004.03.004.059.013.086.028a.234.234 0 0 1 .067.058.21.21 0 0 1 .039.081c.008.029.01.06.005.089a.224.224 0 0 1-.072.139.231.231 0 0 1-.143.063ZM272.841 439.689a.21.21 0 0 1-.132-.046c-2.599-1.912-2.58-3.563-2.576-3.632a.215.215 0 0 1 .069-.16.215.215 0 0 1 .165-.06.235.235 0 0 1 .158.071.22.22 0 0 1 .061.163c0 .023 0 1.5 2.392 3.252a.232.232 0 0 1 .082.115.23.23 0 0 1-.219.297ZM275.16 439.259a.238.238 0 0 1-.105-.028c-2.85-1.509-3.069-3.147-3.079-3.202a.239.239 0 0 1 .046-.167.217.217 0 0 1 .067-.057.231.231 0 0 1 .34.169c0 .028.234 1.487 2.841 2.869a.233.233 0 0 1 .11.136.241.241 0 0 1-.014.175.222.222 0 0 1-.089.08.225.225 0 0 1-.117.025Z" fill="#090028"/><path d="m313.812 392.714-4.442-18.645h-12.094c-1.285 0-3.056.847-3.129.883-4.858 2.585-18.215 17.304-17.547 26.581.604 8.421 12.726 6.747 24.806 8.691l2.685-11.166-4.368-1.171 14.089-5.173Z" fill="#D95F76"/><path d="M309.805 395.468v-21.399h12.099c1.285 0 3.055.847 3.128.883 4.858 2.585 19.884 17.771 19.212 27.048-.608 8.421-14.779 8.082-21.421 10.132l-3.691-13.353.324-.677-9.651-2.634Z" fill="#D95F76"/><path d="m329.414 398.396-.151 23.328s-21.128 3.861-39.937-1.143c-.458-.124.882-19.29.882-19.29s0-3.714 1.963-4.867c1.962-1.153 17.958-8.234 18.338-8.234.38 0 18.905 10.206 18.905 10.206Z" fill="#D95F76"/><path d="M309.159 380.556a.229.229 0 1 0 0-.457c-6.943-.458-9.208-5.192-9.231-5.242a.234.234 0 0 0-.051-.073.228.228 0 0 0-.164-.059.215.215 0 0 0-.086.022.227.227 0 0 0-.12.127.23.23 0 0 0 .005.175c.023.05 2.393 5.032 9.606 5.489l.041.018Z" fill="#090028"/><path d="M316.813 374.069h-15.301s2.744 4.79 8.05 4.771c2.429-.009 5.023-.901 7.251-4.771Z" fill="#FF6160"/><path d="M307.384 404.931c-.969-.983-.073-2.232-.073-2.232-.361-1.491.037-2.141.037-2.141s4.085 1.212 6.404 2.068c1.308-.197 1.77-.837 1.77-.837l.032.055c.027-1.13.059-2.553.059-2.708 0-.275.43-.705 1.107.151a36.932 36.932 0 0 1 1.981 3.156l3.38-1.985 2.745 9.509s-8.197 1.162-9.46 1.249c-1.262.087-5.653-.942-6.962-2.026-1.308-1.084-1.024-2.049-1.024-2.049a1.659 1.659 0 0 1 .004-2.21Z" fill="#F78C63"/><path d="M316.295 398.637v2.959a2.68 2.68 0 0 1-2.534 1.043l-1.267-.457.997-4.282 2.804.737ZM310.088 404.158c.033 0 .064-.01.09-.029a.15.15 0 0 0-.044-.268 18.57 18.57 0 0 1-2.744-1.295.159.159 0 0 0-.117-.015.154.154 0 0 0-.094.07.146.146 0 0 0-.018.057.17.17 0 0 0 .005.059.161.161 0 0 0 .027.052.14.14 0 0 0 .046.038 17.85 17.85 0 0 0 2.804 1.322l.045.009ZM310.089 406.083a.148.148 0 0 0 .098-.034.158.158 0 0 0 .053-.089.157.157 0 0 0-.124-.179 9.393 9.393 0 0 1-2.653-.983.157.157 0 0 0-.116-.016.157.157 0 0 0-.094.071.153.153 0 0 0 .054.206 9.429 9.429 0 0 0 2.745 1.02l.037.004ZM309.75 408.279a.15.15 0 0 0 .032-.297 8.097 8.097 0 0 1-2.315-.97.152.152 0 0 0-.114-.019.154.154 0 0 0-.096.065.152.152 0 0 0 .046.21 8.221 8.221 0 0 0 2.415 1.011h.032Z" fill="#AE253D"/><path d="m319.652 400.632 4.652-1.157s2.626 6.509 2.626 6.724c0 .215-1.313 5.946-1.477 5.946a18.88 18.88 0 0 1-1.656-1.569l-4.145-9.944Z" fill="#4CB7D8"/><path d="m328.189 396.392 2.287-.365a.29.29 0 0 0 .179-.114.292.292 0 0 0 .05-.207.28.28 0 0 0-.321-.228l-1.934.311-4.323-6.651a.266.266 0 0 0-.28-.123.257.257 0 0 0-.1.04.289.289 0 0 0-.12.173.275.275 0 0 0 .038.207l4.524 6.957ZM327.347 380.153a.245.245 0 0 1-.188-.096c-1.72-2.475-3.202-2.479-3.202-2.479a.23.23 0 0 1-.228-.229.229.229 0 0 1 .228-.229c.083 0 1.729.032 3.564 2.671a.229.229 0 0 1 .003.253.222.222 0 0 1-.063.063.216.216 0 0 1-.114.046ZM326.857 382.472a.23.23 0 0 1-.206-.123c-1.317-2.653-2.776-2.914-2.79-2.919a.227.227 0 0 1-.152-.089.234.234 0 0 1-.045-.171.234.234 0 0 1 .09-.153.228.228 0 0 1 .171-.044c.069 0 1.702.279 3.138 3.165a.239.239 0 0 1 .023.087.234.234 0 0 1-.229.247Z" fill="#090028"/><path d="M314.008 401.035a.15.15 0 0 1-.18-.198.15.15 0 0 1 .07-.081 18.75 18.75 0 0 0 2.424-1.829.136.136 0 0 1 .052-.03.148.148 0 0 1 .116.007.151.151 0 0 1 .077.088.148.148 0 0 1-.007.116.151.151 0 0 1-.036.047 18.405 18.405 0 0 1-2.47 1.871l-.046.009ZM314.392 402.919a.153.153 0 0 1-.174-.091.153.153 0 0 1 .083-.197 9.379 9.379 0 0 0 2.396-1.514.166.166 0 0 1 .051-.031.17.17 0 0 1 .059-.009.17.17 0 0 1 .058.014.165.165 0 0 1 .047.035.149.149 0 0 1 .04.11c0 .02-.005.039-.014.057a.13.13 0 0 1-.035.048 9.566 9.566 0 0 1-2.483 1.569l-.028.009ZM315.175 405.002a.154.154 0 0 1-.099-.015.153.153 0 0 1-.084-.13c0-.021.003-.041.01-.059a.191.191 0 0 1 .032-.051.158.158 0 0 1 .05-.034 8.149 8.149 0 0 0 2.067-1.427.14.14 0 0 1 .049-.034.13.13 0 0 1 .059-.013c.02 0 .04.004.058.013a.14.14 0 0 1 .049.034.152.152 0 0 1 0 .215 8.393 8.393 0 0 1-2.159 1.482l-.032.019Z" fill="#AE253D"/><path d="m294.393 396.239-2.319.119a.28.28 0 0 1-.276-.372.27.27 0 0 1 .143-.156.279.279 0 0 1 .106-.025l1.962-.101 2.85-7.401a.28.28 0 0 1 .517.201l-2.983 7.735Z" fill="#090028"/><path d="m304.092 399.067-2.393 11.436s-4.922-4.002-4.922-4.442c0-.439 1.56-5.768 1.725-5.868.165-.101 5.59-1.126 5.59-1.126Z" fill="#4CB7D8"/><path d="M301.858 410.82h-.242a42.497 42.497 0 0 1-12.428-3.157.26.26 0 0 1-.089-.06.256.256 0 0 1-.059-.09.26.26 0 0 1-.02-.106.27.27 0 0 1 .172-.253.252.252 0 0 1 .105-.02c.037 0 .072.007.106.022a42.677 42.677 0 0 0 12.002 3.092l2.05-10.8-9.345-3.202a.275.275 0 0 1-.17-.352.281.281 0 0 1 .141-.158.278.278 0 0 1 .212-.011l9.798 3.352-2.233 11.743ZM320.871 410.82h.242a42.512 42.512 0 0 0 12.429-3.157.28.28 0 0 0 .148-.15.298.298 0 0 0 .02-.106.272.272 0 0 0-.172-.253.26.26 0 0 0-.106-.02.254.254 0 0 0-.105.022 42.684 42.684 0 0 1-12.003 3.092l-2.05-10.8 9.346-3.202a.276.276 0 0 0 .169-.352.276.276 0 0 0-.352-.169l-9.798 3.352 2.232 11.743Z" fill="#090028"/><path d="m333.627 507.76-23.328-11.207 2.241-4.661s2.772-1.423 4.803.961c0 0 2.603 4.574 7.625 2.959l6.761 7.827s2.662 2.534 1.898 4.121Z" fill="#E2F2F1"/><path d="m333.001 509.409-23.595-11.34a.402.402 0 0 1-.207-.233.397.397 0 0 1 .017-.311l.721-1.5a.406.406 0 0 1 .543-.191l23.595 11.34a1.011 1.011 0 0 1 .473 1.349l-.198.413a1.014 1.014 0 0 1-1.349.473Z" fill="#090028"/><path d="M289.656 423.182h42.137a2.512 2.512 0 0 0 2.512-2.512v-22.688a2.512 2.512 0 0 0-2.512-2.511h-42.137a2.512 2.512 0 0 0-2.512 2.511v22.688a2.512 2.512 0 0 0 2.512 2.512Z" fill="#2A1968"/><path d="M308.359 406.99a1.885 1.885 0 1 1 3.77.002 1.885 1.885 0 0 1-3.77-.002Z" fill="#fff"/><g filter="url(#ga)"><path d="m666.375 449.103-3.783 1.633-4.209 1.994s-6.532 1.134-6.628 1.116l.545.97c-8.106 1.002-33.658 2.049-37.852 2.52-2.53.279-4.959 3.426-6.491 5.878l2.077 1.404s22.313-.983 22.267-.512c0 .146-.64 2.36-1.619 5.26 13.782.915 33.081.833 36.662-4.848 2.942-4.657.074-11.344-.969-15.415ZM580.297 548.656l16.957.228.242-15.849-16.888-2.091-.311 17.712Z" fill="#fff"/><path d="M632.424 492.731s14.596.243 24.824-.109c3.285-.11 6.208.119 7.937-.266 7.122-1.582 8.874-23.809.791-37.426-8.083-13.618-36.374 28.196-36.374 28.196l2.822 9.605Z" fill="#BF0830"/><path d="m606.012 549.255 16.952.234.247-15.855-16.888-2.09-.311 17.711Z" fill="#fff"/><path d="M616.707 462.985s-35.853 2.287-36.887 6.432c-1.034 4.144-3.998 48.162-1.784 66.939 0 0 13.604.938 20.127-.64l1.587-45.788 10.736-1.235 24.6-29.573-18.379 3.865Z" fill="#890421"/><path d="M633.254 462s-27.652 7.804-28.685 11.943c-1.034 4.14-3.98 43.424-1.761 62.21 0 0 14.637.837 21.132-.741l1.752-43.195 6.308.22 15.301-26.919L633.254 462Z" fill="#BF0830"/><path d="M615.843 536.964c6.464 0 8.769-.97 8.879-1.02l.142-.064 1.697-43.455-2.672 1.258.211.457 1.93-.915-1.651 42.307c-.7.243-4.053 1.208-11.971.842v.499c1.244.068 2.393.091 3.435.091Z" fill="#090028"/><path d="M621.903 527.597c.691-2.662.888-28.617.915-29.733h-.507c0 .27-.206 26.988-.883 29.6l.475.133ZM596.21 490.903c3.275-1.062 7.776-1.222 7.835-1.222v-.498c-.046 0-4.624.164-7.973 1.244l.138.476Z" fill="#090028"/><path d="M588.833 536.871a44.302 44.302 0 0 0 9.372-.915l.188-.045 1.601-46.301-2.045 1.647.311.389 1.194-.961-1.551 44.828a45.4 45.4 0 0 1-9.555.86v.498h.485Z" fill="#090028"/><path d="M595.78 528.562c.686-4.021.032-31.224 0-32.381h-.499c0 .283.682 28.314 0 32.289l.499.092ZM643.407 493.197c6.367 0 14.002-.215 22.588-.864l-.037-.494c-25.575 1.926-42.728 0-42.897 0l-.055.494c.11.014 7.758.864 20.401.864Z" fill="#090028"/><path d="M634.66 448.365c-.494 0-20.355 8.536-20.355 8.536l4.002 7.657 11.148-2.447 5.205-13.746ZM663.428 412.769s8.444-.298 12.478 1.989c6.015 3.408 3.87 22.931 3.87 22.931s-5.109-2.79-5.42-3.719c-.311-.928-10.928-21.201-10.928-21.201Z" fill="#2A1968"/><path d="M665.478 455.145h-.032l-6.211 1.422a.236.236 0 0 1-.178-.029.235.235 0 0 1 .072-.428l6.217-1.423a.226.226 0 0 1 .274.174.233.233 0 0 1-.142.284Z" fill="#090028"/><path d="m668.726 451.457-3.783 1.638-4.208 1.994s-6.532 1.134-6.628 1.112l.544.974c-8.105 1.002-33.657 2.049-37.852 2.516-2.529.283-4.958 3.426-6.49 5.882l2.076 1.404s22.313-.983 22.268-.516c0 .15-.645 2.364-1.62 5.265 13.778.914 33.077.832 36.663-4.849 2.932-4.671.073-11.358-.97-15.42Z" fill="#F9B59D"/><path d="M671.602 414.293c-4.798-.664-17.464-1.121-17.464-1.121s-1.679.457-1.144.192c-13.983 2.47-15.529 12.84-15.529 12.84l-6.83 29.97-7.597.412c-2.457 4.661-.655 17.227-.655 17.227l36.8 4.148s7.955 1.309 14.684-7.318c4.446-5.709 5.946-23.233 5.946-36.036.014 0-.75-19.285-8.211-20.314Z" fill="#2A1968"/><path d="M568.531 437.501h35.039l12.218 31.119h-35.034l-12.223-31.119Z" fill="#FCE6CF"/><path d="M615.788 468.62h-1.825l-12.223-31.119h1.83l12.218 31.119Z" fill="#F3CBC2"/><path d="M591.44 452.065c.485 1.432.128 2.846-.796 3.161-.924.316-2.068-.59-2.552-2.022-.485-1.431-.129-2.84.795-3.156.924-.315 2.068.59 2.553 2.017Z" fill="#E2F2F1"/><path d="M627.37 466.096h-13.087v2.516h13.087a1.259 1.259 0 0 0 0-2.516Z" fill="#F3CBC2"/><path d="M624.057 466.968h-8.27v.393h8.27v-.393Z" fill="#E23E3D"/><path d="M659.235 456.695a.232.232 0 0 1-.138 0 .23.23 0 0 1-.145-.103.232.232 0 0 1-.024-.176c.037-.16 3.884-16.513 5.521-26.801a.235.235 0 0 1 .092-.152.23.23 0 0 1 .173-.04.233.233 0 0 1 .193.266c-1.638 10.305-5.49 26.672-5.531 26.837a.23.23 0 0 1-.141.169ZM635.433 456.427a.256.256 0 0 1-.155 0 .24.24 0 0 1-.151-.293c.059-.183 5.764-18.297 6.957-24.545a.236.236 0 0 1 .27-.188.239.239 0 0 1 .188.274c-1.199 6.285-6.912 24.418-6.971 24.601a.228.228 0 0 1-.138.151ZM658.63 421.954l-.549.045a.19.19 0 0 1-.075-.007.204.204 0 0 1-.066-.037.196.196 0 0 1-.046-.061.179.179 0 0 1-.018-.073.191.191 0 0 1 .178-.206c8-.562 9.487-6.404 9.501-6.481a.192.192 0 0 1 .219-.156.188.188 0 0 1 .16.215c-.009.064-1.486 5.951-9.304 6.761Z" fill="#090028"/><path d="M633.8 452.104a.229.229 0 0 1-.283-.101l-1.56-2.671v-.091l5.26-23.077a13.931 13.931 0 0 1 2.745-5.865c2.136-2.781 6.349-6.317 14.29-7.373a.236.236 0 0 1 .172.046.235.235 0 0 1-.023.387.232.232 0 0 1-.085.029c-7.776 1.033-11.893 4.473-13.97 7.172a13.776 13.776 0 0 0-2.694 5.681l-5.238 22.995 1.469 2.516a.242.242 0 0 1 .023.178.234.234 0 0 1-.11.142l.004.032Z" fill="#090028"/><path d="M625.571 452.191a.233.233 0 0 1-.315-.222.232.232 0 0 1 .069-.163.215.215 0 0 1 .077-.049l6.715-2.681a.236.236 0 0 1 .177.006c.057.024.101.07.125.127a.236.236 0 0 1-.128.302l-6.715 2.676-.005.004Z" fill="#090028"/><path d="M623.037 456.587s-2.429 5.731-.654 17.226l8.883-4.766-2.639-8.586-5.59-3.874Z" fill="#2A1968"/><path d="M667.256 456.901a.31.31 0 0 1-.086 0c-.334 0-33.209-.998-43.968-.11-.265.704-1.477 4.355-1.139 11.033a.214.214 0 0 1-.013.09.217.217 0 0 1-.046.077.217.217 0 0 1-.073.054.235.235 0 0 1-.255-.039.238.238 0 0 1-.08-.159c-.384-7.566 1.162-11.216 1.231-11.367l.055-.128h.137c10.631-.915 43.83.087 44.164.096a.228.228 0 0 1 .163.075.225.225 0 0 1 .061.167.223.223 0 0 1-.151.211Z" fill="#090028"/><path d="m652.226 395.74-.261 10.113s-.22 3.248 2.612 3.728l-.641 4.323a3.378 3.378 0 0 0 2.223 3.705c.862.3 1.765.464 2.676.485 3.253.087 5.078-2.287 5.38-3.518.302-1.23-.362-7.058-.362-7.058l.174-2.863-.082-11.097-11.719 2.182Z" fill="#fff"/><path d="M661.246 406.987s-.334 5.439-7.141 5.782l.458-3.202s4.4 1.011 6.683-2.58Z" fill="#E8EBF8"/><path d="M659.938 401.249a.128.128 0 0 0 .051-.009.131.131 0 0 0 .045-.028.138.138 0 0 0 0-.192s-1.83-1.972-3.573-.645a.138.138 0 0 0 0 .192.133.133 0 0 0 .188 0c1.541-1.176 3.138.54 3.202.613a.102.102 0 0 0 .035.045c.015.012.033.02.052.024ZM664.645 399.947l-2.941.531-.54.535s.38-4.894.956-5.846c.576-.951 2.525 4.78 2.525 4.78ZM654.376 400.291c.02 0 .04-.003.058-.011a.148.148 0 0 0 .048-.035.138.138 0 0 0 0-.192c-.055-.046-1.318-1.185-2.155-.508a.142.142 0 0 0-.06.095.138.138 0 0 0 .13.157.135.135 0 0 0 .056-.01.137.137 0 0 0 .048-.031c.654-.531 1.784.489 1.798.498.021.02.049.033.077.037Z" fill="#090028"/><path d="M660.548 401.668a2.433 2.433 0 0 0 1.445 2.291 2.438 2.438 0 1 0-1.445-2.291Z" fill="#fff"/><path d="M663.373 403.099a1.027 1.027 0 0 0 .979-.737.954.954 0 0 0-.357-1.125 1.148 1.148 0 0 0-1.28 0c.091-.251.271-.46.507-.585.344-.147.73-.162 1.084-.042a.072.072 0 0 0 .052-.002.07.07 0 0 0 .035-.039.058.058 0 0 0 .006-.026.077.077 0 0 0-.023-.048.07.07 0 0 0-.024-.013 1.673 1.673 0 0 0-1.194.046 1.355 1.355 0 0 0-.645.874l-.064.233.179-.165a1.06 1.06 0 0 1 1.294-.128.832.832 0 0 1 .302.965.878.878 0 0 1-.846.645.068.068 0 0 0-.051.067.067.067 0 0 0 .051.066l-.005.014ZM655.703 404.426a.076.076 0 0 0 .041-.01.061.061 0 0 0 .027-.032.07.07 0 0 0-.004-.051.076.076 0 0 0-.037-.036l-1.372-.484.512-3.202a.067.067 0 0 0-.066-.051.07.07 0 0 0-.042.014.062.062 0 0 0-.024.037l-.531 3.293 1.455.522h.041Z" fill="#AE253D"/><path d="M656.7 405.775c-.041 0-2.68-.142-2.68-.142s.301 1.102 1.28 1.153c.979.05 1.4-1.011 1.4-1.011Z" fill="#FBFDFC"/><path d="M664.645 399.948s.947-4.73-.457-6.536c-1.405-1.807-9.67-5.119-10.704-4.264-1.034.856-.05 1.963-.05 1.963s-3.326-1.162-4.158 1.788c-.833 2.951 6.335 4.401 10.671 3.124a9.61 9.61 0 0 1 4.698 3.925ZM665.592 477.271c-.502.19-1.013.354-1.533.489a12.735 12.735 0 0 1-4.912.43.235.235 0 0 1-.153-.095.23.23 0 0 1-.039-.175.236.236 0 0 1 .265-.192c1.595.164 3.207.021 4.748-.421 2.539-.677 6.285-2.41 9.711-6.806 4.304-5.521 5.878-22.51 5.914-35.382a.25.25 0 0 1 .003-.102.228.228 0 0 1 .046-.092.246.246 0 0 1 .08-.063.243.243 0 0 1 .2 0 .25.25 0 0 1 .081.063.234.234 0 0 1 .048.194c-.041 12.945-1.638 30.057-6.011 35.679-2.872 3.678-5.987 5.54-8.448 6.473Z" fill="#090028"/><path d="m598.438 550.922-14.395 2.685-7.017-5.274-9.496 8.33-2.287.43a1.707 1.707 0 0 0-1.422 1.624 1.652 1.652 0 0 0 .59 1.3 1.676 1.676 0 0 0 1.381.365l33.479-6.24a.458.458 0 0 0 .361-.526l-.407-2.182a.668.668 0 0 0-.527-.517.67.67 0 0 0-.26.005Z" fill="#A22641"/><path d="m598.313 550.964-1.102-5.91s-3.033-2.813-6.404-.457c0 0-4.844 5.004-10.662 1.125l-11.212 7.703s-3.142 1.743-3.714 3.71l33.094-6.171Z" fill="#100E68"/><path d="m623.843 550.952-14.547 1.706-6.655-5.731-10.031 7.689-2.324.27a1.719 1.719 0 0 0-1.533 1.528 1.685 1.685 0 0 0 .505 1.336 1.676 1.676 0 0 0 1.353.457l33.822-3.971a.459.459 0 0 0 .398-.503l-.261-2.205a.665.665 0 0 0-.244-.439.65.65 0 0 0-.483-.137Z" fill="#D95F76"/><path d="m623.714 550.984-.699-5.974s-2.836-3.009-6.368-.887c0 0-5.173 4.666-10.713.407l-11.71 6.926s-3.252 1.527-3.956 3.453l33.446-3.925Z" fill="#1F1587"/></g><path d="m225.275 527.523 3.371 1.455 3.746 1.779s5.823 1.011 5.906.988l-.485.87c7.223.892 29.984 1.829 33.721 2.241 2.251.252 4.419 3.051 5.782 5.237l-1.83 1.254s-19.879-.878-19.838-.458c0 .133.572 2.109 1.445 4.689-12.277.819-29.472.741-32.664-4.318-2.635-4.131-.083-10.105.846-13.737ZM302.493 616.748l-15.104.206-.215-14.121 15.044-1.861.275 15.776Z" fill="#fff"/><path d="M255.519 566.403s-13 .215-22.116-.096c-2.923-.101-5.526.105-7.067-.238-6.345-1.409-7.909-21.206-.705-33.337 7.205-12.131 32.404 25.113 32.404 25.113l-2.516 8.558Z" fill="#0B1249"/><path d="m279.05 616.748-15.104.206-.216-14.121 15.045-1.861.275 15.776Z" fill="#fff"/><path d="M269.522 539.899s31.937 2.041 32.861 5.727c.924 3.687 3.563 42.902 1.587 59.63 0 0-12.117.833-17.913-.572l-1.413-40.788-9.565-1.098-21.915-26.343 16.358 3.444Z" fill="#2836A5"/><path d="M254.175 539.297s24.632 6.948 25.551 10.64c.92 3.691 3.55 38.679 1.574 55.407 0 0-13.032.746-18.828-.658l-1.56-38.479-5.621.197-13.627-23.978 12.511-3.129Z" fill="#0B1249"/><path d="M287.781 564.766c-2.918-.942-6.939-1.084-6.98-1.089v-.457c.041 0 4.117.146 7.104 1.111l-.124.435Z" fill="#090028"/><path d="M294.356 605.715a39.654 39.654 0 0 1-8.353-.814l-.164-.037-1.423-41.246 1.83 1.468-.279.344-1.066-.856 1.372 39.933a40.67 40.67 0 0 0 8.513.764v.458l-.43-.014Z" fill="#090028"/><path d="M288.161 598.313c-.613-3.582-.032-27.816 0-28.845h.457c0 .251-.608 25.222 0 28.758l-.457.087Z" fill="#090028"/><path d="M253.535 526.877c.458 0 18.132 7.602 18.132 7.602l-3.563 6.821-9.931-2.178-4.638-12.245ZM227.896 495.17s-7.525-.266-11.116 1.77c-5.361 3.037-3.449 20.424-3.449 20.424s4.552-2.484 4.831-3.312c.279-.828 9.734-18.882 9.734-18.882Z" fill="#C43F5C"/><path d="M226.066 532.916h.027l5.535 1.262a.202.202 0 0 0 .157-.025.182.182 0 0 0 .058-.056.188.188 0 0 0 .032-.074.201.201 0 0 0 .002-.081.2.2 0 0 0-.157-.166l-5.535-1.267a.209.209 0 0 0-.229.148.213.213 0 0 0 .11.25v.009Z" fill="#090028"/><path d="m223.184 529.621 3.367 1.459 3.751 1.775s5.818 1.011 5.9.993l-.48.864c7.218.915 29.98 1.83 33.717 2.246 2.255.252 4.418 3.051 5.782 5.238l-1.83 1.248s-19.88-.873-19.839-.457c0 .133.577 2.104 1.446 4.689-12.277.818-29.472.741-32.66-4.318-2.639-4.149-.087-10.11.846-13.737Z" fill="#F9B59D"/><path d="M220.618 496.523c4.277-.591 15.552-.998 15.552-.998s1.496.389 1.02.17c12.46 2.2 13.837 11.435 13.837 11.435l6.079 26.695 6.77.366c2.191 4.154.581 15.347.581 15.347l-32.779 3.696s-7.085 1.166-13.082-6.518c-3.961-5.087-5.311-20.694-5.311-32.102.005.004.686-17.167 7.333-18.091Z" fill="#C43F5C"/><path d="M312.437 517.199h-31.211l-10.886 27.72h31.21l10.887-27.72Z" fill="#090028"/><path d="M270.34 544.919h1.628l10.887-27.72h-1.629l-10.886 27.72Z" fill="#030014"/><path d="M292.032 530.176c-.43 1.271-.114 2.529.709 2.813.823.283 1.83-.526 2.287-1.803.458-1.276.119-2.529-.704-2.813-.824-.283-1.858.522-2.292 1.803Z" fill="#E2F2F1"/><path d="M260.02 542.678h11.66v2.241h-11.66a1.12 1.12 0 0 1-1.116-1.121 1.12 1.12 0 0 1 1.116-1.12Z" fill="#030014"/><path d="M262.975 543.804h7.365v-.352h-7.365v.352Z" fill="#090028"/><path d="M231.637 534.293a.201.201 0 0 0 .119 0 .207.207 0 0 0 .13-.091.207.207 0 0 0 .026-.156c-.037-.146-3.463-14.711-4.917-23.877a.213.213 0 0 0-.238-.17.21.21 0 0 0-.171.157.184.184 0 0 0-.003.081c1.464 9.176 4.89 23.754 4.926 23.901.005.035.02.068.042.096a.196.196 0 0 0 .086.059Z" fill="#916D47"/><path d="M252.839 534.055a.229.229 0 0 0 .137 0 .2.2 0 0 0 .07-.039.205.205 0 0 0 .062-.222c-.05-.16-5.132-16.289-6.193-21.865a.211.211 0 0 0-.087-.133.201.201 0 0 0-.155-.031.209.209 0 0 0-.134.086.206.206 0 0 0-.031.156c1.066 5.599 6.157 21.751 6.207 21.911.009.03.025.059.046.083a.214.214 0 0 0 .078.054ZM232.178 503.348c.16 0 .32.032.489.041a.172.172 0 0 0 .183-.155.176.176 0 0 0-.042-.126.18.18 0 0 0-.118-.062c-7.131-.498-8.453-5.717-8.462-5.768a.163.163 0 0 0-.025-.063.166.166 0 0 0-.046-.049.173.173 0 0 0-.241.037.166.166 0 0 0-.031.126c.009.054 1.326 5.301 8.293 6.019Z" fill="#090028"/><path d="M254.293 530.207a.21.21 0 0 0 .252-.091l1.372-2.383v-.078l-4.693-20.557c-.4-1.911-1.244-3.7-2.466-5.224-1.902-2.479-5.658-5.626-12.73-6.568a.202.202 0 0 0-.207.101.196.196 0 0 0-.026.077.206.206 0 0 0 .101.208c.024.013.05.022.077.025 6.921.915 10.585 3.985 12.442 6.404a12.275 12.275 0 0 1 2.402 5.06l4.666 20.487-1.309 2.237a.215.215 0 0 0-.021.157.216.216 0 0 0 .094.127l.046.018Z" fill="#090028"/><path d="M261.627 530.268a.208.208 0 0 0 .157-.005.202.202 0 0 0 .108-.114.206.206 0 0 0-.114-.266l-5.979-2.36a.21.21 0 0 0-.27.114.222.222 0 0 0-.015.08.206.206 0 0 0 .13.19l5.983 2.388v-.027Z" fill="#090028"/><path d="M263.881 534.196s2.163 5.11.581 15.347l-7.909-4.245 2.351-7.648 4.977-3.454Z" fill="#C43F5C"/><path d="M224.489 534.481a.144.144 0 0 0 .077 0c.298 0 29.587-.888 39.17-.096.237.631 1.317 3.878 1.015 9.825a.212.212 0 0 0 .197.22.193.193 0 0 0 .079-.013.2.2 0 0 0 .117-.106.213.213 0 0 0 .019-.078c.343-6.738-1.034-9.99-1.089-10.127l-.05-.11h-.124c-9.473-.81-39.045.077-39.338.087a.206.206 0 0 0-.124.056.208.208 0 0 0-.041.254.21.21 0 0 0 .101.092l-.009-.004Z" fill="#916D47"/><path d="m237.875 479.996.233 9.012s.197 2.891-2.328 3.321l.577 3.851a3.024 3.024 0 0 1-1.981 3.298c-.766.276-1.57.43-2.383.457-2.896.074-4.52-2.058-4.79-3.137-.269-1.08.321-6.285.321-6.285l-.156-2.548.073-9.89 10.434 1.921Z" fill="#fff"/><path d="M229.844 490.014s.297 4.844 6.363 5.15l-.426-2.84s-3.906.892-5.937-2.31Z" fill="#D9D9D9"/><path d="M231.01 484.904a.12.12 0 0 1-.111-.07.123.123 0 0 1-.011-.068.122.122 0 0 1 .026-.063s1.633-1.761 3.202-.576a.128.128 0 0 1 0 .169.125.125 0 0 1-.169 0c-1.372-1.048-2.799.457-2.859.544a.115.115 0 0 1-.031.042.12.12 0 0 1-.047.022ZM226.816 483.748l2.621.457.481.458s-.339-4.359-.851-5.206c-.512-.846-2.251 4.291-2.251 4.291ZM235.963 484.068a.133.133 0 0 1-.049-.009.12.12 0 0 1-.076-.115c0-.032.012-.063.034-.087.05-.041 1.175-1.057 1.921-.457a.123.123 0 0 1-.085.209.117.117 0 0 1-.084-.035c-.581-.458-1.592.434-1.601.457a.108.108 0 0 1-.06.037Z" fill="#090028"/><path d="M233.462 485.33a.366.366 0 1 1-.732.011.366.366 0 0 1 .732-.011ZM237.301 484.867a.36.36 0 1 1-.721.018.36.36 0 0 1 .721-.018Z" fill="#1A2578"/><path d="M230.466 485.279a2.18 2.18 0 0 1-1.287 2.043 2.171 2.171 0 0 1-2.913-2.763 2.168 2.168 0 0 1 1.972-1.393 2.17 2.17 0 0 1 2.228 2.113Z" fill="#fff"/><path d="M227.945 486.552a.913.913 0 0 1-.869-.654.851.851 0 0 1 .32-1.002 1.016 1.016 0 0 1 1.139 0 .97.97 0 0 0-.457-.521 1.372 1.372 0 0 0-.99-.034.054.054 0 0 1-.025-.003.052.052 0 0 1-.022-.014.06.06 0 0 1-.018-.046.073.073 0 0 1 .008-.025.052.052 0 0 1 .017-.019 1.464 1.464 0 0 1 1.085.031 1.175 1.175 0 0 1 .576.777l.055.211-.156-.151a.947.947 0 0 0-1.152-.114.742.742 0 0 0-.27.864.785.785 0 0 0 .755.572.047.047 0 0 1 .023.003.056.056 0 0 1 .034.029.062.062 0 0 1 .007.023.099.099 0 0 1-.003.024.057.057 0 0 1-.013.021.056.056 0 0 1-.02.014.064.064 0 0 1-.024.005v.009ZM234.802 487.726a.056.056 0 0 1-.036-.01.06.06 0 0 1-.023-.031.057.057 0 0 1 .004-.044.057.057 0 0 1 .032-.029l1.199-.457-.458-2.836a.065.065 0 0 1 .001-.024.051.051 0 0 1 .01-.021.055.055 0 0 1 .018-.016.053.053 0 0 1 .022-.008.065.065 0 0 1 .073.05l.457 2.937-1.294.457-.005.032Z" fill="#AE253D"/><path d="m233.896 488.935 2.388-.123s-.27.983-1.143 1.029c-.874.045-1.245-.906-1.245-.906Z" fill="#A9A9A9"/><path d="M226.816 483.747s-.842-4.213.411-5.823c1.254-1.61 8.614-4.574 9.538-3.796.924.777.045 1.747.045 1.747s2.96-1.038 3.701 1.592c.741 2.63-5.645 3.92-9.505 2.781a8.557 8.557 0 0 0-4.19 3.499Z" fill="#090028"/><path d="M317.715 620.546h-30.442v-6.207s2.214-2.983 5.586-1.46c0 0 5.1 3.619 9.605-.759l11.162 4.949s4.089 1.368 4.089 3.477Z" fill="#C43F5C"/><path d="M317.825 622.723H287.05a.491.491 0 0 1-.49-.49v-1.994a.492.492 0 0 1 .49-.49h30.775a1.212 1.212 0 0 1 1.212 1.213v.571a1.212 1.212 0 0 1-1.212 1.19Z" fill="#0B1249"/><path d="M293.965 620.546h-30.442v-6.207s2.214-2.983 5.586-1.46c0 0 5.1 3.619 9.605-.759l11.166 4.949s4.085 1.368 4.085 3.477Z" fill="#C43F5C"/><path d="M294.067 622.723h-30.775a.489.489 0 0 1-.49-.49v-1.994a.489.489 0 0 1 .49-.49h30.775a1.212 1.212 0 0 1 1.212 1.213v.571a1.212 1.212 0 0 1-1.212 1.19Z" fill="#1A2578"/><path opacity=".2" d="M631.64 121.213c8.086 0 14.641-6.763 14.641-15.106 0-8.344-6.555-15.107-14.641-15.107-8.085 0-14.64 6.763-14.64 15.107 0 8.343 6.555 15.106 14.64 15.106Z" stroke="#BF0830" stroke-width="10"/><path opacity=".3" d="M235.5 228.478c4.142 0 7.5-3.465 7.5-7.739S239.642 213 235.5 213c-4.142 0-7.5 3.465-7.5 7.739s3.358 7.739 7.5 7.739Z" stroke="#6258C4" stroke-width="5"/><path opacity=".3" d="M700.5 327.478c4.142 0 7.5-3.465 7.5-7.739S704.642 312 700.5 312c-4.142 0-7.5 3.465-7.5 7.739s3.358 7.739 7.5 7.739Z" stroke="#74BBFB" stroke-width="5"/><g opacity=".84" filter="url(#gb)"><path d="M336.967 529.213a3 3 0 0 1-2.744 1.787h-34.616c-2.169 0-3.621-2.23-2.744-4.213l10.172-23a3 3 0 0 1 2.743-1.787h34.615c2.169 0 3.621 2.23 2.744 4.213l-10.17 23Z" fill="#fff" fill-opacity=".46"/></g><g opacity=".84" filter="url(#gc)"><path d="M337.967 530.213a3 3 0 0 1-2.744 1.787h-34.616c-2.169 0-3.621-2.23-2.744-4.213l10.172-23a3 3 0 0 1 2.743-1.787h34.615c2.169 0 3.621 2.23 2.744 4.213l-10.17 23Z" fill="#fff" fill-opacity=".27"/></g><path d="m319.67 511.313-6.211-.082 2.76 8.838 6.209.082-2.758-8.838Z" fill="#0056A7"/><path d="m316.18 519.814.095.249 6.209.08-2.03-6.207-4.274 5.878Z" fill="#2E3191"/><path d="m332.831 504.061-16.554 16.002 6.209.082 16.556-16.003-6.211-.081ZM315.473 522.475l6.032.078-1.687 5.072-6.033-.08 1.688-5.07Z" fill="#0056A7"/><g filter="url(#gd)"><path d="M477.936 458.416c1.754 4 5.708 6.584 10.075 6.584h104.914c2.885 0 4.822-2.963 3.663-5.606l-33.31-76a4.002 4.002 0 0 0-3.664-2.394H450.121c-2.886 0-4.822 2.963-3.664 5.606l31.479 71.81Z" fill="#E2738B" fill-opacity=".61" shape-rendering="crispEdges"/></g><g filter="url(#ge)"><path d="M474.936 461.416c1.754 4 5.708 6.584 10.075 6.584h104.914c2.885 0 4.822-2.963 3.663-5.606l-33.31-76a4.002 4.002 0 0 0-3.664-2.394H447.121c-2.886 0-4.822 2.963-3.664 5.606l31.479 71.81Z" fill="#E2738B" fill-opacity=".61"/></g><path d="M541.564 438.475c.424.958.108 1.756-.702 1.772l-10.309.212c-.801 0-1.827-.753-2.252-1.711l-5.411-12.16c-.425-.958-.108-1.756.705-1.776l10.305-.208c.802 0 1.828.753 2.253 1.711l5.411 12.16Z" fill="#07BFDD"/><path d="M548.166 422.872c.425.958.108 1.755-.702 1.771l-10.308.213c-.802 0-1.828-.754-2.253-1.716l-5.407-12.156c-.429-.958-.112-1.76.702-1.776l10.304-.208c.802 0 1.828.753 2.253 1.711l5.411 12.161Z" fill="#007FFF"/><path d="M515.083 439.016c.429.958.112 1.76-.701 1.776l-10.305.208c-.802 0-1.828-.753-2.253-1.711l-5.411-12.16c-.424-.958-.108-1.756.702-1.772l10.309-.212c.801 0 1.823.753 2.252 1.711l5.407 12.16Z" fill="#1DA5F8"/><path d="M494.858 423.963c.429.958.113 1.759-.701 1.775l-10.305.213c-.801 0-1.827-.754-2.252-1.716l-5.411-12.16c-.425-.958-.108-1.756.701-1.772l10.305-.212c.802 0 1.832.757 2.257 1.715l5.406 12.157Z" fill="#8CC936"/><path d="M468 49.326C440.066 37.23 432.5 13.57 432.5 0c-2.082 30.5-22 44.5-34.5 50.5 27 6.674 32.366 35.268 35.082 50C436 67.5 456 50.5 468 49.326Z" fill="#F1C21C"/><defs><filter id="ga" x="552.82" y="384.01" width="134.327" height="189.4" filterUnits="userSpaceOnUse" color-interpolation-filters="sRGB"><feFlood flood-opacity="0" result="BackgroundImageFix"/><feColorMatrix in="SourceAlpha" values="0 0 0 0 0 0 0 0 0 0 0 0 0 0 0 0 0 0 127 0" result="hardAlpha"/><feOffset dx="-2" dy="4"/><feGaussianBlur stdDeviation="4.5"/><feComposite in2="hardAlpha" operator="out"/><feColorMatrix values="0 0 0 0 0 0 0 0 0 0 0 0 0 0 0 0 0 0 0.25 0"/><feBlend in2="BackgroundImageFix" result="effect1_dropShadow_404_14238"/><feBlend in="SourceGraphic" in2="effect1_dropShadow_404_14238" result="shape"/></filter><filter id="gb" x="292.604" y="498" width="58.793" height="37" filterUnits="userSpaceOnUse" color-interpolation-filters="sRGB"><feFlood flood-opacity="0" result="BackgroundImageFix"/><feGaussianBlur in="BackgroundImageFix" stdDeviation="2"/><feComposite in2="SourceAlpha" operator="in" result="effect1_backgroundBlur_404_14238"/><feBlend in="SourceGraphic" in2="effect1_backgroundBlur_404_14238" result="shape"/></filter><filter id="gc" x="293.604" y="499" width="58.793" height="37" filterUnits="userSpaceOnUse" color-interpolation-filters="sRGB"><feFlood flood-opacity="0" result="BackgroundImageFix"/><feGaussianBlur in="BackgroundImageFix" stdDeviation="2"/><feComposite in2="SourceAlpha" operator="in" result="effect1_backgroundBlur_404_14238"/><feBlend in="SourceGraphic" in2="effect1_backgroundBlur_404_14238" result="shape"/></filter><filter id="gd" x="442.116" y="379" width="158.812" height="94" filterUnits="userSpaceOnUse" color-interpolation-filters="sRGB"><feFlood flood-opacity="0" result="BackgroundImageFix"/><feGaussianBlur in="BackgroundImageFix" stdDeviation="1"/><feComposite in2="SourceAlpha" operator="in" result="effect1_backgroundBlur_404_14238"/><feColorMatrix in="SourceAlpha" values="0 0 0 0 0 0 0 0 0 0 0 0 0 0 0 0 0 0 127 0" result="hardAlpha"/><feOffset dy="4"/><feGaussianBlur stdDeviation="2"/><feComposite in2="hardAlpha" operator="out"/><feColorMatrix values="0 0 0 0 0 0 0 0 0 0 0 0 0 0 0 0 0 0 0.25 0"/><feBlend in2="effect1_backgroundBlur_404_14238" result="effect2_dropShadow_404_14238"/><feBlend in="SourceGraphic" in2="effect2_dropShadow_404_14238" result="shape"/></filter><filter id="ge" x="441.116" y="382" width="154.812" height="88" filterUnits="userSpaceOnUse" color-interpolation-filters="sRGB"><feFlood flood-opacity="0" result="BackgroundImageFix"/><feGaussianBlur in="BackgroundImageFix" stdDeviation="1"/><feComposite in2="SourceAlpha" operator="in" result="effect1_backgroundBlur_404_14238"/><feBlend in="SourceGraphic" in2="effect1_backgroundBlur_404_14238" result="shape"/></filter></defs></svg><svg viewBox="0 0 18 18" id="instagram" xmlns="http://www.w3.org/2000/svg"><path fill-rule="evenodd" clip-rule="evenodd" d="M5.625 0h6.428a5.358 5.358 0 0 1 5.357 5.357v6.429a5.358 5.358 0 0 1-5.357 5.357H5.625a5.358 5.358 0 0 1-5.357-5.357V5.357A5.358 5.358 0 0 1 5.625 0Zm6.428 15.536a3.754 3.754 0 0 0 3.75-3.75V5.357a3.754 3.754 0 0 0-3.75-3.75H5.625a3.754 3.754 0 0 0-3.75 3.75v6.429a3.754 3.754 0 0 0 3.75 3.75h6.428Z"/><path fill-rule="evenodd" clip-rule="evenodd" d="M4.553 8.572a4.286 4.286 0 1 1 8.572 0 4.286 4.286 0 0 1-8.572 0Zm1.607 0a2.682 2.682 0 0 0 2.678 2.678 2.682 2.682 0 0 0 2.679-2.678 2.682 2.682 0 0 0-2.679-2.679A2.682 2.682 0 0 0 6.16 8.572Z"/><circle cx="13.446" cy="3.964" r=".571" fill="#fff"/></svg><svg fill="none" viewBox="0 0 68 20" id="kfc" xmlns="http://www.w3.org/2000/svg"><path d="M61.917 0c-11.689.003-14.653 6.273-15.13 10.53-.542 4.78 2.939 9.47 11.52 9.47 3.613 0 5.975-.597 6.812-.849a.604.604 0 0 0 .27-.166.56.56 0 0 0 .14-.274l.484-2.414a.464.464 0 0 0-.019-.248.487.487 0 0 0-.145-.208.523.523 0 0 0-.495-.1 16.55 16.55 0 0 1-4.704.668c-4.101 0-7.063-2.34-6.686-6.367.363-3.899 3.13-6.87 6.937-6.87 2.29 0 3.303 1.141 3.227 2.66v.088a.468.468 0 0 0 .14.36.515.515 0 0 0 .368.152h1.555c.24 0 .447-.159.503-.379l1.088-4.668a.546.546 0 0 0-.067-.418.597.597 0 0 0-.351-.259A21.118 21.118 0 0 0 61.92.003L61.917 0ZM5.645.308a.577.577 0 0 0-.348.116A.528.528 0 0 0 5.1.72L4.8 2.005a.503.503 0 0 0 .058.371.547.547 0 0 0 .304.24l.093.026c.58.217 1.256.705.971 1.984l-2.21 9.602c-.579 2.618-1.514 3.157-2.402 3.252h-.028a.573.573 0 0 0-.317.132.525.525 0 0 0-.174.285l-.285 1.23a.485.485 0 0 0 .106.428c.05.06.113.107.185.14a.56.56 0 0 0 .231.05h9.735c.237 0 .444-.159.494-.376l.335-1.44a.467.467 0 0 0-.049-.334.506.506 0 0 0-.264-.224l-.061-.026c-.494-.186-1.167-.594-.994-1.353l1.13-4.907c3.878 6.724 5.16 8.663 9.81 8.66h4.205a.523.523 0 0 0 .317-.105.477.477 0 0 0 .177-.271l.293-1.247a.493.493 0 0 0-.102-.433.568.568 0 0 0-.417-.199c-1.05-.015-1.563-.246-2.61-1.525l-5.394-6.933 7.007-5.539c.941-.7 2.088-.896 2.725-.976l.061-.005a.53.53 0 0 0 .293-.12.487.487 0 0 0 .162-.262L28.473.9a.464.464 0 0 0-.102-.41.537.537 0 0 0-.4-.182H19.54a.574.574 0 0 0-.345.116.525.525 0 0 0-.194.295l-.285 1.22a.508.508 0 0 0 .064.384.555.555 0 0 0 .321.24c.497.182.606.636.176.97l-7.183 5.671 1.229-5.342a1.79 1.79 0 0 1 .484-.815 1.93 1.93 0 0 1 .847-.477l.07-.02a.56.56 0 0 0 .243-.148.52.52 0 0 0 .134-.243l.296-1.265a.458.458 0 0 0-.1-.405.527.527 0 0 0-.394-.18L5.645.31Zm24.79 0a.577.577 0 0 0-.346.117.527.527 0 0 0-.195.296l-.299 1.282a.482.482 0 0 0 .053.354c.063.108.165.19.288.232l.056.021c.57.204 1.36.727 1.016 2.01L27.63 19.158a.46.46 0 0 0 .1.408.531.531 0 0 0 .398.18h7.751c.24 0 .447-.159.5-.379l.335-1.45a.44.44 0 0 0-.04-.307.476.476 0 0 0-.234-.214 3.637 3.637 0 0 1-.075-.034c-.491-.228-1.223-.756-.977-1.777.025-.133.754-3.29.754-3.29h6.594c.24 0 .446-.159.502-.379l.617-2.652a.463.463 0 0 0-.1-.413.509.509 0 0 0-.403-.182h-6.364l1.192-5.145 4.444-.008c1.438 0 1.876.716 1.792 1.93l-.005.064a.463.463 0 0 0 .127.381.513.513 0 0 0 .383.163h1.64c.24 0 .446-.16.496-.382L48.174.897a.465.465 0 0 0-.104-.409.536.536 0 0 0-.399-.18H30.435Z" fill="#8F90A6"/></svg><svg fill="none" viewBox="0 0 16 16" id="left" xmlns="http://www.w3.org/2000/svg"><path fill="#C2D1D9" d="M20 20H-4V-4h24z"/></svg><svg viewBox="0 0 17 17" id="linkedin" xmlns="http://www.w3.org/2000/svg"><g clip-path="url(#ka)"><path d="M4.017 16.572H.78V5.936h3.33v10.636h-.093ZM2.352 4.456C1.335 4.456.41 3.624.41 2.514c0-1.018.833-1.942 1.942-1.942 1.018 0 1.943.832 1.943 1.942 0 1.11-.833 1.942-1.943 1.942ZM16.41 16.572h-3.33v-5.18c0-1.202 0-2.774-1.664-2.774-1.757 0-1.942 1.295-1.942 2.682v5.271h-3.33V5.937H9.29v1.48c.462-.833 1.48-1.665 3.144-1.665 3.33 0 3.977 2.22 3.977 5.086v5.735Z"/></g><defs><clipPath id="ka"><path transform="translate(.41 .572)" d="M0 0h16v16H0z"/></clipPath></defs></svg><svg fill="none" viewBox="0 0 137 38" id="logo" xmlns="http://www.w3.org/2000/svg"><path d="M103.459 21.587c0 1.864-.285 3.523-.856 4.98-.571 1.457-1.375 2.68-2.41 3.671-1.036.99-2.276 1.742-3.718 2.253-1.442.51-3.05.766-4.822.766-1.773 0-3.38-.27-4.82-.811-1.442-.54-2.682-1.314-3.719-2.32-1.035-1.006-1.84-2.231-2.41-3.672-.57-1.441-.856-3.064-.856-4.867 0-1.772.285-3.38.856-4.82.57-1.442 1.375-2.665 2.41-3.673 1.037-1.006 2.276-1.78 3.718-2.32 1.442-.54 3.048-.811 4.82-.811 1.773 0 3.381.278 4.823.833 1.442.556 2.68 1.337 3.718 2.343 1.037 1.006 1.839 2.231 2.41 3.673.571 1.44.856 3.034.856 4.775Zm-15.77 0c0 1.832.352 3.238 1.058 4.214.707.977 1.69 1.463 2.952 1.463s2.231-.495 2.907-1.487c.676-.99 1.014-2.388 1.014-4.19 0-1.801-.345-3.19-1.037-4.168-.692-.976-1.668-1.463-2.929-1.463-1.26 0-2.238.488-2.928 1.463-.694.976-1.037 2.367-1.037 4.168ZM107.784 32.536a4.816 4.816 0 0 1-1.149-1.487c-.285-.57-.428-1.216-.428-1.937 0-.6.143-1.194.428-1.78a8.29 8.29 0 0 1 1.059-1.645l7.751-9.102h-8.291a7.38 7.38 0 0 1-.519-1.262 5.42 5.42 0 0 1-.247-1.667c0-1.052.233-1.81.699-2.275.464-.466 1.088-.699 1.87-.699h14.193c.481.42.864.918 1.149 1.487.286.57.428 1.217.428 1.938 0 .602-.142 1.195-.428 1.78a8.373 8.373 0 0 1-1.058 1.646l-7.571 9.102h8.832c.18.33.352.751.518 1.261.165.511.248 1.068.248 1.668 0 1.051-.233 1.81-.699 2.274-.466.466-1.09.7-1.87.7h-14.915v-.002ZM128.512 4.555c0-1.141.383-2.101 1.149-2.883.766-.78 1.779-1.173 3.041-1.173 1.261 0 2.276.392 3.042 1.173.766.782 1.149 1.742 1.149 2.883 0 1.142-.383 2.103-1.149 2.884-.766.782-1.78 1.17-3.042 1.17-1.262 0-2.275-.388-3.041-1.17-.766-.78-1.149-1.742-1.149-2.884Zm8.021 27.936c-.33.06-.818.143-1.465.248-.645.105-1.299.157-1.96.157a10.58 10.58 0 0 1-1.78-.136c-.525-.09-.968-.27-1.329-.54a2.601 2.601 0 0 1-.833-1.104c-.197-.466-.293-1.073-.293-1.825V10.953c.33-.06.817-.143 1.464-.247a12.196 12.196 0 0 1 1.96-.158c.66 0 1.254.045 1.779.136.526.09.969.27 1.33.541.361.27.638.638.833 1.104.195.466.293 1.075.293 1.825v18.337h.001ZM53.173 9.961c1.23 0 2.44.174 3.627.519 1.186.345 2.215.863 3.086 1.554.9-.6 1.915-1.097 3.04-1.487 1.127-.39 2.486-.586 4.08-.586 1.141 0 2.26.15 3.356.452 1.097.3 2.073.773 2.93 1.418.855.647 1.538 1.503 2.05 2.57.51 1.065.766 2.364.766 3.896v14.194c-.3.09-.774.18-1.419.27-.646.09-1.315.135-2.005.135-.661 0-1.254-.045-1.78-.136-.526-.09-.968-.269-1.33-.54a2.606 2.606 0 0 1-.832-1.104c-.197-.464-.293-1.073-.293-1.825V18.523c0-.901-.257-1.554-.766-1.96-.511-.406-1.203-.607-2.073-.607-.42 0-.872.097-1.351.292-.48.195-.842.4-1.082.61.029.12.045.232.045.337v15.298c-.33.09-.819.18-1.464.269-.646.09-1.3.135-1.96.135-.661 0-1.254-.045-1.78-.135-.525-.09-.968-.27-1.33-.54a2.583 2.583 0 0 1-.832-1.104c-.197-.465-.293-1.074-.293-1.825V18.525c0-.902-.278-1.554-.833-1.96-.556-.407-1.225-.608-2.005-.608-.54 0-1.007.083-1.397.248-.39.166-.72.323-.992.473v15.816c-.3.09-.773.18-1.418.27-.647.09-1.315.135-2.006.135a10.59 10.59 0 0 1-1.78-.136c-.527-.09-.97-.269-1.33-.54-.36-.27-.64-.638-.834-1.104-.195-.464-.292-1.073-.292-1.825V15.688c0-.812.173-1.457.518-1.937.345-.48.819-.93 1.419-1.352 1.02-.72 2.29-1.306 3.807-1.758 1.516-.454 3.1-.68 4.753-.68Z" fill="#1A2578"/><path d="M7.936 34.697a17.436 17.436 0 0 1-3.993-3.59c.212-.371.303-.8.303-1.276V14.96c.105.076.163.127.228.165 1.088.625 2.175 1.252 3.268 1.865.156.088.185.187.185.346-.002 5.665-.001 11.331-.005 16.997 0 .123.004.244.014.365Zm8.084 2.748a17.242 17.242 0 0 1-4.643-1.018c.593-.42.912-.975.914-1.71.003-4.93.001-9.86.001-14.79v-.35c.386.233.725.449 1.075.645.74.418 1.481.835 2.23 1.234.317.169.435.379.434.76-.015 5.077-.012 10.154-.01 15.23Zm1.375.054h-.011c1.023 0 2.027-.09 3.001-.26.004-5.236.003-10.473 0-15.709 0-.488.006-.98-.061-1.459-.04-.284-.195-.562-.338-.821-.233-.421-.647-.648-1.047-.878-.565-.324-1.132-.643-1.697-.966-.619-.355-1.232-.718-1.852-1.07-.807-.458-1.621-.899-2.424-1.362-.886-.511-1.76-1.043-2.644-1.56-.431-.252-.874-.488-1.31-.735-.857-.485-1.714-.97-2.569-1.458-.533-.305-1.061-.615-1.596-.916-.39-.22-.807-.4-1.175-.648a.928.928 0 0 0-.063-.041A17.41 17.41 0 0 1 8.01 5.557c-.145.46-.113.948.078 1.448.204.534.62.898 1.108 1.176.808.46 1.625.906 2.434 1.366.754.43 1.502.871 2.255 1.305.656.379 1.31.756 1.968 1.13.556.317 1.115.627 1.673.94.443.249.887.495 1.324.751.482.283.952.584 1.438.861.636.364 1.281.712 1.92 1.07.501.282 1 .567 1.499.85.232.13.371.27.37.597-.016 5.607-.01 11.215-.016 16.822 0 .45.065.864.288 1.266.15.269.334.483.545.65a17.392 17.392 0 0 0 3.533-2.263c.012-2.924.004-5.848.004-8.773 0-3.057-.001-6.113.002-9.172a2.53 2.53 0 0 0-.242-1.123c-.197-.41-.49-.72-.874-.945-.616-.361-1.245-.697-1.864-1.053-.903-.518-1.798-1.05-2.701-1.567-.807-.462-1.624-.907-2.432-1.366a654.016 654.016 0 0 1-3.101-1.772c-.753-.433-1.503-.87-2.255-1.307-.557-.324-1.112-.654-1.671-.977-.36-.208-.724-.412-1.088-.614-.312-.172-.644-.314-.935-.515a1.906 1.906 0 0 0-.485-.24 17.282 17.282 0 0 1 5.998-1.292c.11.09.23.172.362.248 1.003.578 2 1.168 3.004 1.745.696.399 1.404.78 2.103 1.176.664.376 1.321.764 1.984 1.14.563.321 1.131.63 1.695.947.444.25.885.504 1.325.762.392.23.775.476 1.171.7.482.273.98.518 1.462.791.664.378 1.317.772 1.978 1.154.169.099.25.207.25.43-.01 5.656-.011 11.312.002 16.969 0 .13.009.263.026.396a17.285 17.285 0 0 0 2.597-9.13v.012c.001 9.583-7.767 17.35-17.347 17.35Z" fill="#D60936"/><path d="M3.93 31.132A17.302 17.302 0 0 1 0 20.128c0-3.964 1.328-7.618 3.564-10.543l.048.03A17.272 17.272 0 0 0 .047 20.152c0 4.155 1.46 7.97 3.897 10.956a.22.22 0 0 1-.015.025Zm7.438 5.301a17.357 17.357 0 0 1-3.43-1.715v-.02c1.07.697 2.223 1.28 3.439 1.73a.042.042 0 0 1-.009.005Zm6.003 1.066c-.454 0-.905-.017-1.351-.05v-.002c.45.035.904.054 1.363.054-.003-.002-.007-.002-.012-.002Z" fill="#E3E3E3"/><path d="M17.384 37.5c-.459 0-.913-.02-1.363-.054-.002-5.076-.005-10.153.011-15.23.002-.381-.116-.59-.434-.76-.75-.4-1.49-.817-2.23-1.233-.349-.198-.688-.414-1.074-.645v.349c0 4.93.001 9.86-.002 14.79 0 .735-.319 1.291-.911 1.709a17.307 17.307 0 0 1-3.442-1.73 4.331 4.331 0 0 1-.014-.366c.004-5.665.003-11.331.006-16.997 0-.159-.03-.257-.185-.345-1.094-.613-2.18-1.24-3.268-1.865-.066-.038-.124-.09-.23-.165V29.831c0 .474-.09.904-.302 1.275A17.274 17.274 0 0 1 .049 20.15c0-3.963 1.328-7.614 3.564-10.535.02.013.04.027.062.04.37.25.785.43 1.175.649.535.301 1.064.611 1.597.915.853.49 1.71.975 2.566 1.46.435.246.876.482 1.307.735.884.517 1.758 1.049 2.645 1.56.803.463 1.618.904 2.424 1.362.62.352 1.233.715 1.852 1.07.565.325 1.132.642 1.697.966.402.23.814.457 1.047.878.143.26.298.536.338.821.067.48.06.973.06 1.46.004 5.235.005 10.472 0 15.708-.972.17-1.975.259-3 .26Z" fill="#BF0830"/><path d="M8.014 5.556c.008-.03.019-.057.029-.086a17.27 17.27 0 0 1 2.665-1.391c.028.007.054.016.082.025-.973.402-1.903.89-2.776 1.452Z" fill="#E3E3E3"/><path d="M24.896 35.79a2.083 2.083 0 0 1-.544-.651c-.223-.402-.289-.817-.289-1.266.006-5.608-.001-11.215.016-16.822.002-.326-.138-.466-.37-.597-.5-.284-.997-.57-1.498-.85-.64-.359-1.286-.707-1.921-1.071-.485-.278-.956-.58-1.438-.86-.438-.257-.882-.503-1.323-.752-.558-.313-1.117-.624-1.674-.94a383.41 383.41 0 0 1-1.967-1.13c-.752-.434-1.5-.875-2.256-1.305-.809-.46-1.625-.906-2.434-1.366-.488-.276-.904-.642-1.108-1.177-.19-.5-.223-.988-.077-1.447a17.204 17.204 0 0 1 2.776-1.45c.167.056.329.135.485.241.29.201.623.34.935.514.364.203.726.407 1.087.615.558.323 1.115.652 1.672.977.752.437 1.502.874 2.255 1.306 1.032.593 2.065 1.184 3.1 1.773.808.458 1.626.904 2.432 1.366.903.517 1.799 1.048 2.702 1.567.619.355 1.248.692 1.864 1.053.383.224.677.534.874.945.172.36.242.728.242 1.121-.003 3.057-.002 6.114-.002 9.172 0 2.925.009 5.85-.004 8.773a17.557 17.557 0 0 1-3.535 2.26Z" fill="#BF0830"/><path d="M34.743 20.14c-.007-9.576-7.771-17.337-17.348-17.337-.204 0-.406.003-.609.01-.019-.014-.036-.03-.054-.046.213-.007.426-.012.64-.012 9.594 0 17.371 7.777 17.371 17.372v.013Z" fill="#E3E3E3"/><path d="M32.145 29.27a3.045 3.045 0 0 1-.026-.397 4705.24 4705.24 0 0 1-.002-16.97c0-.222-.08-.33-.25-.427-.662-.382-1.314-.778-1.978-1.154-.482-.274-.979-.518-1.462-.79-.396-.223-.78-.471-1.171-.7-.44-.257-.881-.51-1.326-.761-.563-.318-1.133-.628-1.695-.947-.662-.377-1.32-.764-1.983-1.14-.7-.396-1.406-.778-2.103-1.177-1.005-.577-2.001-1.166-3.005-1.745a2.76 2.76 0 0 1-.36-.247c.202-.008.404-.01.608-.01 9.577 0 17.342 7.76 17.348 17.336 0 3.348-.95 6.476-2.595 9.128Z" fill="#BF0830"/><path d="M14.323 13.802c.679 0 1.346.096 2.001.285a4.92 4.92 0 0 1 1.703.858 7.395 7.395 0 0 1 1.677-.82c.622-.216 1.37-.323 2.25-.323.63 0 1.247.083 1.851.249a4.721 4.721 0 0 1 1.616.783c.471.357.849.829 1.13 1.417.28.589.422 1.305.422 2.15v7.83c-.166.049-.427.098-.784.148-.356.05-.725.074-1.105.074-.365 0-.692-.025-.982-.074a1.668 1.668 0 0 1-.733-.299 1.45 1.45 0 0 1-.46-.609c-.108-.256-.162-.592-.162-1.006v-5.94c0-.497-.142-.858-.423-1.082-.282-.223-.662-.335-1.143-.335-.233 0-.48.053-.746.161-.265.108-.464.22-.597.335a.797.797 0 0 1 .025.187V26.229c-.182.05-.451.099-.808.148-.357.05-.717.075-1.08.075a5.87 5.87 0 0 1-.982-.075 1.654 1.654 0 0 1-.733-.298 1.44 1.44 0 0 1-.46-.61c-.108-.255-.162-.592-.162-1.005v-5.94c0-.498-.153-.859-.46-1.083-.307-.223-.676-.335-1.105-.335-.299 0-.555.045-.77.137a6.004 6.004 0 0 0-.548.26v8.724c-.166.05-.427.1-.782.149-.357.05-.726.074-1.106.074-.365 0-.692-.025-.981-.074a1.655 1.655 0 0 1-.733-.299 1.45 1.45 0 0 1-.46-.609c-.108-.256-.162-.592-.162-1.006v-7.506c0-.447.095-.804.286-1.069a3.21 3.21 0 0 1 .782-.745c.563-.398 1.264-.721 2.1-.97a9.32 9.32 0 0 1 2.624-.37Z" fill="#fff"/></svg><svg fill="none" viewBox="0 0 188 37" id="product_logo1" xmlns="http://www.w3.org/2000/svg"><path d="M13.225 3.954c6.265 0 10.947 3.5 12.466 9.227h-7.024c-1.076-2.29-3.1-3.372-5.505-3.372-3.923 0-6.644 2.927-6.644 7.636s2.72 7.636 6.644 7.636c2.404 0 4.43-1.145 5.505-3.372h7.024c-1.519 5.727-6.201 9.227-12.466 9.227C5.442 30.872 0 25.336 0 17.38 0 9.427 5.442 3.954 13.225 3.954ZM38.473 31c-6.138 0-10.757-4.137-10.757-10.819 0-6.681 4.746-10.818 10.884-10.818S49.483 13.5 49.483 20.181c0 6.682-4.872 10.819-11.01 10.819Zm0-5.6c2.278 0 4.43-1.719 4.43-5.219 0-3.563-2.089-5.218-4.367-5.218-2.34 0-4.366 1.655-4.366 5.218.063 3.5 1.962 5.219 4.303 5.219ZM62.203 31c-6.138 0-10.758-4.137-10.758-10.819 0-6.681 4.746-10.818 10.884-10.818S73.213 13.5 73.213 20.181C73.213 26.863 68.34 31 62.203 31Zm0-5.6c2.278 0 4.429-1.719 4.429-5.219 0-3.563-2.088-5.218-4.366-5.218-2.341 0-4.366 1.655-4.366 5.218 0 3.5 1.961 5.218 4.303 5.218ZM75.49 3.954h6.391V18.21L88.21 9.68h7.91l-8.67 10.5 8.796 10.5h-7.91l-6.39-8.845v8.845h-6.391V3.954h-.064ZM97.639 4.018c0-1.973 1.518-3.5 3.796-3.5 2.278 0 3.797 1.527 3.797 3.5 0 1.909-1.519 3.436-3.797 3.436-2.278 0-3.796-1.527-3.796-3.436Zm.633 5.6h6.391v21h-6.391v-21ZM117.57 31c-6.138 0-10.567-4.137-10.567-10.819 0-6.681 4.366-10.818 10.567-10.818 6.075 0 10.441 4.073 10.441 10.5 0 .573-.063 1.273-.126 1.91h-14.491c.253 2.736 1.898 4.008 3.987 4.008 1.771 0 2.784-.89 3.353-2.036h6.834C126.493 27.818 122.822 31 117.57 31Zm-4.113-12.855h8.037c0-2.29-1.772-3.627-3.924-3.627-2.151 0-3.733 1.272-4.113 3.627ZM157.563 31c-6.138 0-10.568-4.137-10.568-10.819 0-6.681 4.366-10.818 10.568-10.818 6.074 0 10.44 4.073 10.44 10.5 0 .573-.063 1.273-.126 1.91h-14.491c.253 2.736 1.899 4.008 3.987 4.008 1.771 0 2.784-.89 3.353-2.036h6.834c-1.075 4.073-4.809 7.255-9.997 7.255Zm-4.177-12.855h8.036c0-2.29-1.771-3.627-3.923-3.627-2.088 0-3.733 1.272-4.113 3.627ZM179.583 31c-5.568 0-9.302-3.119-9.618-7.191h6.328c.126 1.463 1.455 2.418 3.227 2.418 1.645 0 2.531-.764 2.531-1.718 0-3.373-11.39-.955-11.39-8.655 0-3.563 3.037-6.49 8.479-6.49 5.379 0 8.416 2.99 8.796 7.127h-5.948c-.19-1.4-1.266-2.355-3.101-2.355-1.519 0-2.341.573-2.341 1.59 0 3.374 11.326.955 11.453 8.846.063 3.628-3.164 6.428-8.416 6.428Z" fill="#404041"/><path d="M134.656 10h-6.644l6.074 11.327h6.645L134.656 10Z" fill="#0056A7"/><path d="m133.96 21.008.19.319h6.644l-4.366-7.955-2.468 7.636Z" fill="#2E3191"/><path d="m146.109.454-11.96 20.873h6.645L152.753.454h-6.644ZM134.149 24.444h6.455V31h-6.455v-6.555Z" fill="#0056A7"/></svg><svg fill="none" viewBox="0 0 220 25" id="product_logo2" xmlns="http://www.w3.org/2000/svg"><g clip-path="url(#na)"><path d="m92.96 6.936-3.714 9.497-4.482-9.497h-2.581l-4.168 9.712-3.8-9.712h-4.9l7.654 18.039 1.527.002 4.93-10.658 4.955 10.665h1.526l7.685-18.048H92.96ZM113.519 17.078l-12.07-.009c.299 1.16.873 2.055 1.715 2.685.844.631 1.891.946 3.138.946 1.689 0 3.285-.615 4.787-1.847l1.94 3.406c-2.035 1.826-4.326 2.737-6.868 2.734-2.704-.002-4.948-.922-6.728-2.761-1.78-1.84-2.667-4.116-2.667-6.831.002-2.69.865-4.96 2.59-6.809 1.723-1.848 3.856-2.773 6.4-2.773 2.382.003 4.324.818 5.825 2.448 1.502 1.629 2.252 3.653 2.25 6.073.002.887-.104 1.802-.312 2.738Zm-10.541-6.225c-.741.665-1.25 1.566-1.529 2.701l7.839.005c-.022-1.135-.392-2.036-1.109-2.704-.717-.668-1.583-1-2.601-1-.991 0-1.86.332-2.6.998ZM131.294 8.557c1.56 1.815 2.339 4.105 2.337 6.869-.002 2.763-.784 5.051-2.345 6.865-1.561 1.812-3.557 2.718-5.985 2.718-2.428-.002-4.266-.915-5.513-2.743l-.002 2.295-4.301-.002L115.503 0l4.681.002-.006 8.012c1.226-1.456 2.938-2.181 5.134-2.181 2.429.002 4.424.91 5.982 2.724Zm-3.682 10.51c.844-.924 1.266-2.15 1.269-3.68 0-1.505-.427-2.72-1.283-3.647-.855-.927-1.907-1.39-3.154-1.392-1.202 0-2.227.437-3.071 1.313-.844.876-1.267 2.129-1.269 3.755 0 1.653.427 2.908 1.282 3.758.855.853 1.873 1.278 3.051 1.28 1.271 0 2.33-.46 3.175-1.386ZM161.397 8.618c1.802 1.84 2.702 4.104 2.701 6.794-.003 2.69-.906 4.96-2.71 6.81-1.803 1.852-3.991 2.774-6.556 2.771-2.566-.002-4.734-.922-6.503-2.761-1.767-1.84-2.65-4.116-2.65-6.831.002-2.69.892-4.955 2.674-6.792 1.782-1.837 3.956-2.755 6.522-2.753 2.547 0 4.719.92 6.522 2.762Zm-9.713 3.212c-.835.95-1.25 2.152-1.252 3.608 0 1.456.415 2.646 1.247 3.572.832.927 1.895 1.39 3.189 1.392 1.272 0 2.331-.467 3.175-1.405.845-.939 1.267-2.122 1.269-3.552.002-1.43-.42-2.628-1.264-3.592-.845-.963-1.902-1.444-3.173-1.446-1.295 0-2.36.473-3.191 1.423ZM165.894 24.347l4.522.002.009-12.844 3.651.002.003-4.108-3.652-.002.001-.222c0-.994.248-1.696.739-2.11.492-.414 1.251-.62 2.278-.62.23 0 .475.013.734.037l.002-4.11a7.98 7.98 0 0 0-1.872-.217c-1.987-.002-3.552.547-4.692 1.646-1.14 1.098-1.711 2.748-1.711 4.947l-.012 17.599ZM175.688 24.347l4.522.002.009-12.844 3.651.002.003-4.108-3.652-.002.001-.222c0-.994.247-1.696.739-2.11.492-.414 1.251-.62 2.278-.62.23 0 .475.013.734.037l.002-4.11a7.98 7.98 0 0 0-1.872-.217c-1.987-.002-3.552.547-4.692 1.646-1.14 1.098-1.711 2.748-1.711 4.947l-.012 17.599ZM140.04 10.355l-.004 7.47c0 1.037.253 1.77.762 2.202.509.432 1.295.65 2.358.65.416 0 .879-.038 1.388-.112l-.003 4.183a7.978 7.978 0 0 1-2.565.404c-2.058-.002-3.677-.575-4.855-1.724-1.178-1.148-1.767-2.87-1.765-5.165l.004-7.912.002-4.22.003-6.106 4.682.003-.003 6.105-.004 4.222Z" fill="#17449C"/><path d="m141.266 6.98 3.962.002-.002 4.22-3.962-.003.002-4.22ZM201.898 17.14l-12.07-.009c.299 1.16.873 2.054 1.715 2.685.845.631 1.891.946 3.138.946 1.689 0 3.285-.615 4.788-1.847l1.94 3.406c-2.036 1.826-4.327 2.737-6.869 2.734-2.704-.002-4.948-.922-6.728-2.761-1.78-1.84-2.667-4.116-2.667-6.832.002-2.69.864-4.959 2.587-6.81 1.724-1.849 3.857-2.773 6.401-2.773 2.381.002 4.324.818 5.825 2.447 1.503 1.63 2.252 3.654 2.249 6.073.005.89-.099 1.803-.309 2.741Zm-10.539-6.226c-.74.666-1.249 1.567-1.529 2.702l7.839.005c-.021-1.135-.392-2.036-1.109-2.704-.717-.668-1.583-1-2.6-1-.994 0-1.861.332-2.601.998ZM219.977 17.152l-12.07-.01c.298 1.16.872 2.055 1.714 2.686.845.63 1.891.945 3.138.945 1.689 0 3.285-.614 4.788-1.846l1.94 3.406c-2.036 1.826-4.326 2.736-6.868 2.734-2.705-.002-4.948-.922-6.728-2.762-1.78-1.84-2.668-4.116-2.668-6.83.002-2.69.864-4.96 2.588-6.811 1.723-1.849 3.856-2.773 6.4-2.773 2.382.002 4.325.818 5.825 2.447 1.503 1.63 2.252 3.654 2.25 6.073a12.45 12.45 0 0 1-.309 2.74Zm-10.542-6.226c-.74.666-1.249 1.567-1.528 2.702l7.838.004c-.022-1.134-.391-2.036-1.109-2.704-.716-.667-1.583-1-2.6-1-.992 0-1.86.333-2.601.998Z" fill="#17449C"/><path d="M47.422 23.593c0 .773-.594 1.407-1.318 1.407h-9.195c-.725 0-1.32-.634-1.32-1.407V13.78c0-.774.595-1.408 1.32-1.408h9.195c.724 0 1.319.634 1.319 1.408v9.813Z" fill="#07BFDD"/><path d="M59.405 11.22c0 .774-.594 1.408-1.319 1.408h-9.195c-.725 0-1.319-.634-1.319-1.407V1.408c0-.774.594-1.408 1.32-1.408h9.194c.725 0 1.319.634 1.319 1.408v9.813Z" fill="#007FFF"/><path d="M23.797 23.593c0 .773-.594 1.407-1.318 1.407h-9.195c-.725 0-1.32-.634-1.32-1.407V13.78c0-.774.595-1.408 1.32-1.408h9.195c.724 0 1.319.634 1.319 1.408v9.813Z" fill="#1DA5F8"/><path d="M11.833 11.222c0 .773-.595 1.407-1.32 1.407H1.32C.594 12.63 0 11.998 0 11.222V1.409C0 .635.594 0 1.319 0h9.195c.725 0 1.319.634 1.319 1.408v9.813Z" fill="#8CC936"/></g><defs><clipPath id="na"><path fill="#fff" d="M0 0h220v25H0z"/></clipPath></defs></svg><svg fill="none" viewBox="0 0 118 28" id="reno" xmlns="http://www.w3.org/2000/svg"><path d="M11.347-2.035c-.414.78-6 11.304-8.407 15.826-.084.157-.077.27.004.423 2.358 4.43 7.136 13.42 7.186 13.503.05-.083 4.827-9.072 7.185-13.502.081-.153.088-.267.004-.423-1.349-2.527-2.689-5.059-4.038-7.586-.087-.161-.093-.282-.003-.445.371-.673.727-1.355 1.102-2.062.054.092 3.63 6.813 5.382 10.106.074.138.08.242.005.385a11801.94 11801.94 0 0 0-8.312 15.65c-.074.14-.149.203-.317.2a77.865 77.865 0 0 0-2.056-.001c-.127.001-.194-.04-.254-.153C6.047 24.64 3.263 19.397.476 14.156c-.057-.11-.063-.191-.003-.304C3.261 8.608 6.043 3.365 8.831-1.877c.035-.066.118-.15.18-.151.765-.011 1.53-.007 2.336-.007Z" fill="#8F90A6"/><path d="M14.517 1.176c-1.275 2.393-4.791 9.007-6.707 12.609-.082.153-.088.267-.004.422 1.349 2.528 2.689 5.06 4.038 7.586.087.162.091.282.002.445-.371.673-.727 1.355-1.103 2.063-.05-.086-3.625-6.808-5.382-10.107-.074-.139-.08-.242-.004-.385C8.13 8.595 10.9 3.38 13.668-1.84c.075-.14.15-.202.317-.2a77.91 77.91 0 0 0 2.056.002c.128-.001.194.04.254.154 2.782 5.245 5.566 10.489 8.352 15.73.059.11.063.192.003.304-2.787 5.242-5.57 10.486-8.357 15.727-.036.066-.118.15-.18.15-.765.011-1.53.007-2.33.007.052-.103 5.641-10.638 8.402-15.826.083-.157.077-.27-.005-.423C19.822 9.354 15.044.364 14.994.281c-.009.016-.184.343-.477.895ZM34.093 20.813h-2.617V9.36c0-.146-.016-.241-.049-.288-.033-.046-.114-.096-.246-.148l-.708-.278.215-1.149h6.61c1.704 0 2.931.327 3.678.98.748.654 1.121 1.708 1.121 3.16 0 1.15-.233 2.035-.698 2.655-.466.622-1.19 1.024-2.174 1.21l3.227 5.31h-2.89L36.63 15.8h-2.537v5.012Zm0-6.994h2.91c.906 0 1.552-.165 1.939-.496.386-.33.58-.89.58-1.684 0-.779-.194-1.335-.58-1.664-.387-.33-1.033-.496-1.938-.496h-2.91v4.34ZM54.237 7.5v2.02h-6.925v3.548h5.51v1.94h-5.51v3.786h7.082v2.02h-9.697V9.365c0-.147-.016-.242-.05-.288-.033-.047-.114-.096-.245-.149l-.709-.277.216-1.15h10.328ZM56.56 9.36c0-.145-.017-.24-.05-.287-.033-.046-.114-.096-.246-.148l-.708-.278.215-1.149h2.952c.197 0 .324.024.384.07.059.047.166.175.324.387l6.788 9.252V7.5h2.42v13.313H66.1l-7.12-9.708v9.707h-2.42V9.361h-.002ZM77.982 7.5c.262.475.544 1.046.846 1.713a77.86 77.86 0 0 1 1.888 4.606 94.816 94.816 0 0 1 1.672 4.913c.237.766.433 1.46.59 2.08h-2.636a49.66 49.66 0 0 0-.452-1.585 97.77 97.77 0 0 1-.453-1.526h-5.823a79.237 79.237 0 0 0-.905 3.111h-2.636c.158-.621.355-1.314.591-2.08a90.702 90.702 0 0 1 1.673-4.913 75.81 75.81 0 0 1 1.888-4.606c.301-.667.584-1.238.846-1.714h2.91Zm-1.457 2.336a67.283 67.283 0 0 0-2.282 5.924h4.564a89.305 89.305 0 0 0-2.282-5.924ZM84.296 9.36c0-.145-.018-.24-.05-.287-.033-.046-.114-.096-.246-.148l-.708-.278.216-1.149h3.226c.118 0 .177.066.177.199v7.706c0 1.268.27 2.179.807 2.735.537.554 1.409.831 2.617.831 1.219 0 2.095-.277 2.627-.831.531-.555.796-1.466.796-2.735V7.498h2.617v8.103c0 .964-.115 1.79-.345 2.477-.229.687-.586 1.251-1.072 1.693-.485.442-1.112.766-1.878.971-.767.205-1.681.307-2.744.307-1.063 0-1.977-.102-2.744-.306-.768-.205-1.394-.528-1.879-.972-.485-.442-.842-1.006-1.071-1.693-.23-.687-.345-1.512-.345-2.477v-6.24h-.001ZM99.404 9.36c0-.145-.016-.24-.05-.287-.033-.046-.114-.096-.245-.148l-.709-.278.216-1.149h3.227c.117 0 .176.066.176.199V18.79h6.039v2.021h-8.656V9.361h.002ZM110.893 9.52h-4.289V7.498h11.194V9.52h-4.288v11.293h-2.617V9.52Z" fill="#8F90A6"/></svg><svg fill="none" viewBox="0 0 38 34" id="right" xmlns="http://www.w3.org/2000/svg"><path d="M2.333 17h33.334M21.084 2.417 35.666 17 21.083 31.583" stroke="#000" stroke-width="4.167" stroke-linecap="round" stroke-linejoin="round"/></svg><svg fill="none" viewBox="0 0 149 26" id="toyota" xmlns="http://www.w3.org/2000/svg"><path fill-rule="evenodd" clip-rule="evenodd" d="M17.73 23.952c-1.964-1.23-3.41-5.472-3.41-10.513 0-.185 0-.367.005-.55C8.865 12.03 4.92 9.68 4.819 6.9l-.016.033c-1.335 1.66-2.098 3.58-2.098 5.624 0 6.018 6.61 10.95 14.985 11.389l.036.007.003-.001ZM.184 12.999C.185 6.266 8.565.807 18.9.807 29.24.807 37.62 6.266 37.62 12.999c0 6.734-8.381 12.194-18.718 12.194C8.563 25.193.184 19.733.184 13ZM18.9 2.566c1.997 0 3.694 3.027 4.323 7.25v-.005c3.882-.61 6.6-2 6.6-3.621 0-2.177-4.89-3.94-10.925-3.94-6.033 0-10.924 1.763-10.924 3.94 0 1.622 2.718 3.016 6.6 3.62v.007c.63-4.224 2.327-7.251 4.323-7.251h.003Zm1.209 21.379c8.38-.436 14.986-5.367 14.986-11.389 0-2.045-.763-3.966-2.1-5.624l-.015-.033c-.102 2.78-4.045 5.13-9.505 5.989 0 .183.006.365.006.55 0 5.041-1.447 9.283-3.408 10.513l.034-.007h.002ZM18.9 10.13c.895 0 1.764-.039 2.596-.112-.414-2.707-1.424-4.618-2.595-4.618-1.17 0-2.178 1.911-2.593 4.618.831.073 1.7.112 2.595.112H18.9Zm0 10.027c1.503 0 2.729-3.127 2.794-7.049h.008c-.905.084-1.843.127-2.802.127-.958 0-1.895-.043-2.8-.127h.007c.065 3.922 1.292 7.049 2.793 7.049ZM95.693 12.999a9.32 9.32 0 1 1 18.64-.002 9.32 9.32 0 0 1-18.64.002Zm9.32 5.898c2.874 0 5.204-2.644 5.204-5.898 0-3.254-2.33-5.898-5.204-5.898-2.875 0-5.203 2.644-5.203 5.898 0 3.254 2.329 5.898 5.203 5.898ZM124.907 7.562v14.333h-3.926V7.562h.013-5.492v-3.24h14.882v3.24h-5.477ZM135.135 17.94l-1.506 3.951h-4.586l7.25-17.573h4.887l7.25 17.573h-4.586l-1.507-3.95h-7.202Zm3.598-2.965h2.469l-2.452-6.433h-.035l-2.452 6.432h2.47ZM52.526 7.562v14.333h-3.927V7.562h.014-5.492v-3.24h14.883v3.24H52.526ZM59.005 12.999a9.32 9.32 0 1 1 18.64-.002 9.32 9.32 0 0 1-18.64.002Zm9.32 5.898c2.874 0 5.204-2.644 5.204-5.898 0-3.254-2.33-5.898-5.204-5.898-2.873 0-5.204 2.644-5.204 5.898 0 3.254 2.33 5.898 5.204 5.898ZM86.67 21.895h1.99v-6.672l6.852-10.9h-4.586l-4.255 7.386-4.257-7.387h-4.586l6.852 10.9v6.673h1.99Z" fill="#8F90A6"/></svg><svg viewBox="0 0 18 15" id="twitter" xmlns="http://www.w3.org/2000/svg"><path d="M17.268 2.374a7.166 7.166 0 0 1-1.98.543 3.417 3.417 0 0 0 1.511-1.9 6.867 6.867 0 0 1-2.179.832A3.435 3.435 0 0 0 8.676 4.2c0 .273.023.534.08.784a9.727 9.727 0 0 1-7.083-3.595 3.441 3.441 0 0 0 1.056 4.593 3.393 3.393 0 0 1-1.553-.423v.038A3.452 3.452 0 0 0 3.93 8.972a3.43 3.43 0 0 1-.9.113c-.22 0-.443-.012-.651-.058a3.469 3.469 0 0 0 3.21 2.393 6.905 6.905 0 0 1-4.26 1.466c-.282 0-.552-.012-.822-.047a9.674 9.674 0 0 0 5.271 1.542c6.324 0 9.781-5.238 9.781-9.778 0-.152-.005-.299-.012-.445a6.856 6.856 0 0 0 1.722-1.784Z"/></svg></svg>