<?xml version="1.0" encoding="utf-8"?><svg viewBox="0 0 149 38" xmlns="http://www.w3.org/2000/svg" xmlns:xlink="http://www.w3.org/1999/xlink"><style>:root>svg{display:none}:root>svg:target{display:block}</style><svg fill="none" viewBox="0 0 116 28" id="decathlon" xmlns="http://www.w3.org/2000/svg"><path d="M115.886-.254H0v28.508h115.886V-.254Z" fill="#8F90A6"/><path fill-rule="evenodd" clip-rule="evenodd" d="m46.296 6.468-5.659 9.6c-.116.211-1.236 1.853-3.515 2.008-2.26.096-4.172-1.97-4.133-4.192.077-2.201 1.776-3.978 4.036-4.017 1.932.039 3.342 1.468 3.322 1.487.406.348.676.6.985 1.043L43.4 8.901c-.367-.367-.522-.54-.985-.869-1.178-1.023-2.897-1.835-5.312-1.912-2.317-.038-4.674.889-6.47 3.148-1.12 1.43-1.564 2.724-1.622 4.616.02 2.222.85 4.018 2.066 5.312 2.086 2.105 4.597 2.607 5.93 2.607 1.931-.077 3.341-.54 4.674-1.39.425-.29.87-.657 1.352-1.14h3.592v2.183h3.69V6.468h-4.018Zm.367 9.676h-1.97l1.97-3.399v3.4ZM53.964 21.553v-11.53h-2.898V6.525h9.735v3.496h-2.994v11.53h-3.843ZM69.24 15.797H65.3v5.756h-3.823V6.526H65.3v5.698h3.94V6.526h3.863v15.027H69.24v-5.756ZM104.972 6.526v8.344l-5.755-8.344h-3.458v5.08c-.386-1.159-1.081-2.221-2.047-3.129a8.171 8.171 0 0 0-5.601-2.221c-2.221 0-4.172.734-5.717 2.202-1.545 1.448-2.376 3.36-2.376 5.427 0 1.642.425 3.09 1.236 4.346h-2.936V6.526h-3.824v15.027H82.8v-1.584c1.449 1.236 3.245 1.854 5.292 1.854 2.183 0 4.269-.83 5.775-2.337.889-.869 1.507-1.912 1.893-3.052v5.119h3.844V13.19l5.852 8.363h3.38V6.526h-3.863Zm-16.9 11.57c-2.163 0-4.133-1.816-4.133-4.192 0-2.202 1.835-3.96 4.172-3.96 2.202 0 4.036 1.758 4.036 3.96.02 2.473-1.815 4.192-4.075 4.192Z" fill="#fff"/><path fill-rule="evenodd" clip-rule="evenodd" d="M29.029 9.77V6.448h-8.537v6.18c-.251-1.796-1.005-3.244-2.183-4.326-1.641-1.487-3.38-1.796-5.871-1.796h-5.37v15.027h5.891c2.202 0 3.69-.29 5.37-1.855 1.178-1.12 1.912-2.53 2.163-4.19v5.967h8.537V18.23h-4.77v-2.781h4.132v-3.226h-4.133V9.79h4.77v-.02Zm-16.572 8.48h-1.545v-8.5h1.526c2.82 0 4.345 1.527 4.345 4.23 0 2.956-1.39 4.27-4.326 4.27Z" fill="#fff"/></svg><svg fill="none" viewBox="0 0 100 28" id="dekoria" xmlns="http://www.w3.org/2000/svg"><g clip-path="url(#ba)" fill="#8F90A6"><path d="m64.47 22.038-4.69-6.327 4.69-6.326h-3.318l-4.714 6.326V5.171h-2.62v16.864h2.62V15.71l4.714 6.327h3.318ZM37.093 5.172V10.5a5.83 5.83 0 0 0-3.426-1.115c-3.338 0-6.044 2.832-6.044 6.325 0 3.493 2.706 6.325 6.044 6.325a5.831 5.831 0 0 0 3.426-1.115v1.115h2.62V5.172h-2.62Zm-3.426 14.123c-1.892 0-3.426-1.605-3.426-3.585s1.534-3.586 3.426-3.586c1.892 0 3.426 1.605 3.426 3.586 0 1.98-1.534 3.585-3.426 3.585Z"/><path d="M69.337 9.385c-3.338 0-6.044 2.832-6.044 6.325 0 3.493 2.706 6.325 6.044 6.325 3.338 0 6.044-2.832 6.044-6.325 0-3.494-2.706-6.325-6.044-6.325Zm0 9.91c-1.892 0-3.426-1.605-3.426-3.586 0-1.98 1.534-3.585 3.426-3.585 1.892 0 3.426 1.605 3.426 3.585s-1.534 3.586-3.426 3.586ZM96.745 9.388V10.5a5.834 5.834 0 0 0-3.426-1.115c-3.338 0-6.044 2.832-6.044 6.325 0 3.493 2.706 6.325 6.044 6.325a5.835 5.835 0 0 0 3.426-1.115v1.115h2.62V9.388h-2.62Zm-3.426 9.907c-1.892 0-3.426-1.605-3.426-3.586 0-1.98 1.534-3.585 3.426-3.585 1.892 0 3.426 1.605 3.426 3.585s-1.534 3.586-3.426 3.586ZM78.908 15.62H76.29v6.415h2.62V15.62Z"/><path d="M76.293 15.711h2.617c.001-1.979 1.534-3.583 3.425-3.584v-2.74c-3.337.001-6.041 2.832-6.042 6.324ZM86.165 9.388h-2.62v12.647h2.62V9.388ZM84.86 7.927c.728 0 1.317-.617 1.317-1.378 0-.76-.59-1.377-1.316-1.377-.727 0-1.316.617-1.316 1.377s.59 1.378 1.316 1.378ZM49.187 18.241a3.332 3.332 0 0 1-2.422 1.054c-1.504 0-2.778-1.014-3.239-2.424h9.179c.067-.377.103-.764.103-1.161 0-3.493-2.705-6.325-6.043-6.325-2.817 0-5.184 2.016-5.854 4.745h-.001v.003a6.618 6.618 0 0 0-.19 1.577c0 3.493 2.707 6.325 6.045 6.325 2.477 0 4.605-1.561 5.538-3.794h-3.116Zm-2.422-6.116c1.349 0 2.513.818 3.071 2.005h-6.143c.558-1.187 1.722-2.005 3.072-2.005ZM.473-.203V28.81h7.655V26.07H3.093V2.539h17.936v23.53H13.37v-3.297h-2.62v3.298h-.003v2.741H23.65V-.203"/><path d="M16.641 8.275c-.452.093-1.278.366-1.278.366s-.149-.442-.63-.957c-.97-1.04-2.664-2.056-2.664-2.056s-1.694 1.016-2.665 2.056c-.48.515-.63.957-.63.957s-.825-.273-1.278-.366C6.412 8.05 5.539 8.05 5.539 8.05l.004 6.54c0 3.09 2.439 6.54 6.526 6.54s6.525-3.45 6.525-6.54l.004-6.54s-.873 0-1.957.225Zm-5.2.803c.262-.26.628-.508.628-.508s.365.248.628.508c.264.26.45.556.45.556s-.406.214-.623.381a3.96 3.96 0 0 0-.406.367v-.002s-.278-.212-.505-.365c-.226-.152-.623-.38-.623-.38s.187-.297.45-.557Zm-3.46 1.914s1.256.482 2.09.969c.199.116.417.252.634.392-1.177 2.043-2.049 4.481-2.056 4.501-.666-1.08-.667-2.27-.667-2.27v-3.592Zm8.175 3.592s0 3.99-4.087 3.99c-1.855 0-2.866-.822-3.42-1.72.013-.024 1.265-2.374 5.418-4.893.825-.5 2.089-.969 2.089-.969v3.592Z"/></g><defs><clipPath id="ba"><path fill="#fff" transform="translate(0 -1)" d="M0 0h100v30H0z"/></clipPath></defs></svg><svg fill="none" viewBox="0 0 142 28" id="dominos" xmlns="http://www.w3.org/2000/svg"><path d="M141.122 17.517c-.209-1.055-1.158-1.816-2.171-1.74-1.133.086-1.987.926-2.042 2.03a2.152 2.152 0 0 0 1.823 2.296c1.012.17 2.019-.485 2.342-1.51.035-.114 0-.251.11-.342v-.565c-.062-.04-.05-.108-.062-.169Zm-2.089 2.267a1.828 1.828 0 0 1-1.293-3.123 1.828 1.828 0 0 1 3.123 1.294 1.83 1.83 0 0 1-1.83 1.83ZM46.46 13.033c-1.619-1.124-3.443-1.582-5.383-1.608-2.374-.03-4.75 0-7.124 0-.559 0-.661.1-.661.648v15.573c0 .503.128.628.628.628h6.906c.89.003 1.776-.1 2.64-.31 2.658-.658 4.643-2.137 5.687-4.724.62-1.535.735-3.143.522-4.768-.298-2.264-1.317-4.118-3.214-5.44Zm-2.988 9.715c-.747.74-1.676 1.037-2.701 1.068-.742.023-1.485 0-2.228 0-.177 0-.232-.048-.232-.228.007-2.506.007-5.013 0-7.52 0-.161.047-.213.212-.21.43.011.859 0 1.288 0 .731 0 1.465-.034 2.182.162 1.556.407 2.521 1.6 2.656 3.292.105 1.315-.219 2.484-1.177 3.434v.002ZM83.02 15.914c-1.851-.443-3.496 0-4.897 1.296-.209.194-.389.417-.59.637-.427-1.086-1.193-1.756-2.316-1.973-1.916-.368-3.593.13-5.04 1.457-.014-.02-.023-.026-.023-.034v-.69c0-.405-.146-.552-.544-.553h-3.39c-.4 0-.548.14-.548.548v11.122c0 .403.149.541.557.541h3.295c.507 0 .63-.121.63-.623v-6.639c0-.121-.028-.244.07-.354.347-.392.744-.72 1.27-.81 1.048-.191 1.832.191 1.815 1.457-.025 2.131 0 4.262 0 6.393 0 .464.128.589.598.589h3.264c.494 0 .607-.113.607-.605v-6.639a.529.529 0 0 1 .11-.406 2.58 2.58 0 0 1 .986-.701c1.228-.456 2.094.136 2.105 1.432v6.391c0 .38.135.53.486.531h3.484c.324 0 .486-.162.486-.485 0-2.904.016-5.807 0-8.71-.037-1.632-.93-2.814-2.416-3.172ZM26.362 5.329 20.83-.307a.957.957 0 0 0-.748-.31c-.423-.03-.682.264-.954.543l-4.21 4.297c-1.39 1.418-2.78 2.836-4.172 4.252-.128.128-.162.199-.012.345 3.078 3.13 6.15 6.26 9.22 9.39.213.22.294.095.43-.045 2.823-2.882 5.646-5.762 8.468-8.64.528-.539.525-1.133-.01-1.67-.83-.837-1.652-1.686-2.48-2.526ZM20.1 11.067a2.395 2.395 0 1 1 .043-4.79 2.395 2.395 0 0 1-.043 4.79ZM19.4 18.798c-.212-.199-.408-.42-.612-.628-2.85-2.9-5.698-5.8-8.546-8.705-.183-.187-.277-.215-.486-.01a1270.017 1270.017 0 0 1-5.464 5.577c-1.017 1.036-2.039 2.07-3.049 3.114-.486.497-.47 1.08.008 1.58.217.227.444.442.664.667l7.391 7.55a1.033 1.033 0 0 0 .765.314 1.1 1.1 0 0 0 .764-.367c1.333-1.36 2.667-2.717 4-4.072 1.525-1.552 3.05-3.101 4.576-4.649.156-.157.13-.236-.01-.37ZM6.576 21.276a2.385 2.385 0 1 1 2.35-2.41 2.34 2.34 0 0 1-2.35 2.413v-.003Zm6.906.113a2.37 2.37 0 0 1-2.318-2.382 2.335 2.335 0 1 1 2.318 2.382ZM107.2 19.154c-.06-1.667-1.108-2.937-2.733-3.26-1.99-.397-3.797 0-5.343 1.507v-.797c0-.42-.125-.547-.536-.547h-3.36c-.424 0-.572.14-.572.555v11.091c0 .421.144.566.562.566h3.327c.455 0 .579-.122.579-.57 0-2.14.016-4.281-.012-6.422a1.103 1.103 0 0 1 .509-1.022c.092-.068.187-.132.286-.19 1.457-.831 2.843-.046 2.843 1.618v5.954c0 .526.112.635.648.635h3.266c.427 0 .555-.128.555-.562v-4.762c-.001-1.266.028-2.53-.019-3.794ZM57.762 15.702c-3.481-.162-6.477 2.6-6.6 6.21-.115 3.363 2.335 6.389 5.889 6.666 3.468.268 6.53-2.453 6.747-6.017.222-3.658-2.508-6.695-6.036-6.859Zm1.867 6.419c-.067 1.251-1.043 2.168-2.251 2.105a2.183 2.183 0 1 1 2.25-2.105ZM114.648 15.766c-3.219.387-5.565 3.112-5.565 6.447a5.8 5.8 0 0 0 .206 1.637c.809 3.198 4.093 5.301 7.261 4.65a6.449 6.449 0 0 0 4.281-3.027 6.425 6.425 0 0 0 .612-5.207c-.864-2.863-3.586-4.885-6.795-4.5Zm.746 8.5a2.192 2.192 0 0 1-2.14-2.187 2.195 2.195 0 0 1 2.129-2.199 2.196 2.196 0 0 1 2.14 2.188 2.19 2.19 0 0 1-2.129 2.199ZM134.507 21.104c-.876-.427-1.823-.584-2.775-.724-.63-.092-1.271-.123-1.88-.333-.162-.059-.335-.14-.347-.358a.47.47 0 0 1 .292-.444 1.81 1.81 0 0 1 .809-.19 5.145 5.145 0 0 1 3.273.97c.314.216.536.163.724-.17.382-.671.759-1.343 1.133-2.017.18-.324.125-.518-.185-.709a8.848 8.848 0 0 0-4.321-1.334c-1.307-.062-2.591.02-3.808.567-1.335.6-2.168 1.577-2.206 3.099-.04 1.61.684 2.752 2.149 3.427.921.425 1.911.593 2.901.753.608.099 1.225.162 1.804.38.238.093.476.22.458.527-.017.308-.264.385-.485.465-.43.137-.883.189-1.333.152-1.295-.07-2.448-.572-3.551-1.213-.388-.227-.565-.19-.793.196-.421.708-.84 1.418-1.257 2.13-.233.398-.195.584.196.827a10.123 10.123 0 0 0 4.778 1.457c1.296.026 2.277-.059 3.227-.343 1.888-.567 2.951-1.782 3.121-3.563.16-1.622-.514-2.862-1.924-3.552ZM91.677 16.057h-3.262c-.538 0-.664.125-.664.66V27.52c0 .648.094.75.733.75h3.203c.415 0 .567-.149.568-.565V16.619c-.004-.412-.16-.562-.578-.562ZM122.837 10.16a2.476 2.476 0 0 0-2.074 2.779c.152.994.895 1.718 2.006 1.907.256.044.225.13.149.3a1.658 1.658 0 0 1-.63.719.276.276 0 0 0-.157.186.278.278 0 0 0 .047.24c.427.66.345.692 1.02.359l.084-.04c1.519-.828 2.438-2.049 2.526-3.516.008-1.965-1.359-3.173-2.971-2.934ZM90.118 10.068a2.56 2.56 0 1 0 2.511 2.562 2.535 2.535 0 0 0-2.51-2.562ZM20.742 25.374c-.243.027-.575-.207-.719.209-.162.44-.332.874-.52 1.363l-.425-1.124c-.183-.485-.183-.47-.71-.464-.19 0-.254.056-.25.249.009.7.014 1.399 0 2.105 0 .254.12.247.305.259.225.013.255-.088.251-.275-.011-.47 0-.94 0-1.41.231.47.438.95.62 1.44.04.098.04.233.203.24.163.006.184-.14.227-.25.189-.485.372-.961.556-1.444.042.48.055.96.04 1.441 0 .217.079.263.275.256.196-.006.314 0 .307-.254-.018-.669 0-1.336-.011-2.005-.007-.127.097-.364-.15-.336ZM17.593 25.356c-.523.015-1.046.011-1.567 0-.19 0-.253.052-.253.246s.05.295.261.269c.083-.011.162 0 .251 0 .178-.02.24.055.232.231-.013.27 0 .543 0 .81s.011.564 0 .845c-.013.248.162.191.291.196.13.005.29.03.282-.207-.015-.449 0-.897 0-1.347 0-.506 0-.515.516-.527.19 0 .225-.08.222-.246-.003-.165-.011-.275-.235-.27Z" fill="#8F90A6"/><path d="M139.987 17.265c-.086-.353-.398-.552-.874-.554h-.692c-.144 0-.202.042-.202.196v2.105c0 .11 0 .204.162.202.162-.001.215-.035.205-.192a4.639 4.639 0 0 1 0-.5c.008-.101-.069-.255.107-.282.141-.021.285-.033.379.136.109.2.259.38.366.583.126.242.298.314.58.208l-.598-.924c.488-.238.669-.555.567-.978Zm-1.041.628c-.399.034-.394-.175-.365-.382 0-.531-.055-.476.418-.486.434 0 .632.131.638.425.007.293-.201.403-.691.443Z" fill="#8F90A6"/></svg><svg fill="none" viewBox="0 0 124 28" id="heineken" xmlns="http://www.w3.org/2000/svg"><g clip-path="url(#da)" fill="#8F90A6"><path d="M94.432 12.738h-3.008c-.725 0-1.28.191-1.854.886l-4.25 5.136v-6.022h-4.173v15.39a.9.9 0 0 0 .245.617.819.819 0 0 0 .588.258h3.337v-7.377l3.68 6.031c.549.901 1.093 1.346 2.344 1.346h3.428l-5.853-9.597 5.516-6.668ZM76.786 12.738h-9.29v14.808c0 .81.759 1.46 1.566 1.46h7.724a.818.818 0 0 0 .59-.258.9.9 0 0 0 .245-.618v-2.103h-5.33a.618.618 0 0 1-.443-.197.68.68 0 0 1-.183-.467v-3.421h4.75v-2.97h-4.75v-3.255h5.956V13.62a.9.9 0 0 0-.246-.618.818.818 0 0 0-.59-.257M106.135 12.738h-9.291v14.808c0 .81.759 1.46 1.566 1.46h7.725a.816.816 0 0 0 .589-.258.898.898 0 0 0 .244-.618v-2.103h-5.329a.619.619 0 0 1-.442-.197.68.68 0 0 1-.183-.467v-3.421h4.75v-2.97h-4.75v-3.255h5.954V13.62a.898.898 0 0 0-.244-.618.816.816 0 0 0-.589-.257M47.006 12.738h-4.174v15.39c.001.232.09.454.246.617a.82.82 0 0 0 .589.258h3.337l.002-16.265ZM38.204 12.738h-9.292v14.808c0 .845.765 1.46 1.567 1.46h7.725a.818.818 0 0 0 .589-.259.9.9 0 0 0 .245-.617v-2.103h-5.332a.618.618 0 0 1-.442-.197.68.68 0 0 1-.183-.467v-3.421h4.749v-2.97h-4.746v-3.255h5.954V13.62a.9.9 0 0 0-.245-.617.818.818 0 0 0-.589-.258M24.7 12.738h-4.175v6.236h-3.643v-6.236H12.04v.64c.202.091.374.244.492.438a1.2 1.2 0 0 1 .175.652V29h4.174v-7.056h3.648V29h4.174L24.7 12.738ZM63.283 12.738v15.39a.9.9 0 0 1-.245.617.819.819 0 0 1-.588.258h-2.56l-5.632-9.32c.078.577.117 1.16.117 1.743v7.577h-3.117V12.738h2.024c1.032 0 1.783.447 2.323 1.339.46.756 4.717 7.784 4.717 7.784s-.153-.48-.153-1.762v-7.36h3.114ZM123.185 12.738v.64c-.2.095-.368.248-.486.442-.117.193-.178.419-.176.648v13.658a.895.895 0 0 1-.243.616.813.813 0 0 1-.587.258h-2.556l-5.633-9.32c.078.577.117 1.16.117 1.743V29h-3.117V12.738h2.024c1.031 0 1.783.447 2.323 1.339.46.756 4.716 7.784 4.716 7.784s-.152-.48-.152-1.762v-7.36h3.77Z"/><path d="M4.27 18.66a.245.245 0 0 1-.318.02.266.266 0 0 1-.097-.147.278.278 0 0 1 .013-.176c.113-.361 2.21-7.134 2.21-7.134L.293 6.815a.262.262 0 0 1-.11-.134.278.278 0 0 1-.004-.177.264.264 0 0 1 .103-.14.244.244 0 0 1 .164-.042h7.148S9.694-.444 9.804-.808a.268.268 0 0 1 .088-.153.246.246 0 0 1 .32 0 .268.268 0 0 1 .088.153c.111.362 2.21 7.129 2.21 7.129h7.146a.244.244 0 0 1 .165.04.264.264 0 0 1 .102.141.277.277 0 0 1-.004.177.262.262 0 0 1-.11.135L16.36 9.445h-4.08l-1.266-4.07-1.264 4.07H5.676l3.303 2.52-1.265 4.07-3.444 2.624Z"/></g><defs><clipPath id="da"><path fill="#fff" transform="translate(.185 -1)" d="M0 0h123v30H0z"/></clipPath></defs></svg><svg fill="none" viewBox="0 0 68 20" id="kfc" xmlns="http://www.w3.org/2000/svg"><path d="M61.917 0c-11.689.003-14.653 6.273-15.13 10.53-.542 4.78 2.939 9.47 11.52 9.47 3.613 0 5.975-.597 6.812-.849a.604.604 0 0 0 .27-.166.56.56 0 0 0 .14-.274l.484-2.414a.464.464 0 0 0-.019-.248.487.487 0 0 0-.145-.208.523.523 0 0 0-.495-.1 16.55 16.55 0 0 1-4.704.668c-4.101 0-7.063-2.34-6.686-6.367.363-3.899 3.13-6.87 6.937-6.87 2.29 0 3.303 1.141 3.227 2.66v.088a.468.468 0 0 0 .14.36.515.515 0 0 0 .368.152h1.555c.24 0 .447-.159.503-.379l1.088-4.668a.546.546 0 0 0-.067-.418.597.597 0 0 0-.351-.259A21.118 21.118 0 0 0 61.92.003L61.917 0ZM5.645.308a.577.577 0 0 0-.348.116A.528.528 0 0 0 5.1.72L4.8 2.005a.503.503 0 0 0 .058.371.547.547 0 0 0 .304.24l.093.026c.58.217 1.256.705.971 1.984l-2.21 9.602c-.579 2.618-1.514 3.157-2.402 3.252h-.028a.573.573 0 0 0-.317.132.525.525 0 0 0-.174.285l-.285 1.23a.485.485 0 0 0 .106.428c.05.06.113.107.185.14a.56.56 0 0 0 .231.05h9.735c.237 0 .444-.159.494-.376l.335-1.44a.467.467 0 0 0-.049-.334.506.506 0 0 0-.264-.224l-.061-.026c-.494-.186-1.167-.594-.994-1.353l1.13-4.907c3.878 6.724 5.16 8.663 9.81 8.66h4.205a.523.523 0 0 0 .317-.105.477.477 0 0 0 .177-.271l.293-1.247a.493.493 0 0 0-.102-.433.568.568 0 0 0-.417-.199c-1.05-.015-1.563-.246-2.61-1.525l-5.394-6.933 7.007-5.539c.941-.7 2.088-.896 2.725-.976l.061-.005a.53.53 0 0 0 .293-.12.487.487 0 0 0 .162-.262L28.473.9a.464.464 0 0 0-.102-.41.537.537 0 0 0-.4-.182H19.54a.574.574 0 0 0-.345.116.525.525 0 0 0-.194.295l-.285 1.22a.508.508 0 0 0 .064.384.555.555 0 0 0 .321.24c.497.182.606.636.176.97l-7.183 5.671 1.229-5.342a1.79 1.79 0 0 1 .484-.815 1.93 1.93 0 0 1 .847-.477l.07-.02a.56.56 0 0 0 .243-.148.52.52 0 0 0 .134-.243l.296-1.265a.458.458 0 0 0-.1-.405.527.527 0 0 0-.394-.18L5.645.31Zm24.79 0a.577.577 0 0 0-.346.117.527.527 0 0 0-.195.296l-.299 1.282a.482.482 0 0 0 .053.354c.063.108.165.19.288.232l.056.021c.57.204 1.36.727 1.016 2.01L27.63 19.158a.46.46 0 0 0 .1.408.531.531 0 0 0 .398.18h7.751c.24 0 .447-.159.5-.379l.335-1.45a.44.44 0 0 0-.04-.307.476.476 0 0 0-.234-.214 3.637 3.637 0 0 1-.075-.034c-.491-.228-1.223-.756-.977-1.777.025-.133.754-3.29.754-3.29h6.594c.24 0 .446-.159.502-.379l.617-2.652a.463.463 0 0 0-.1-.413.509.509 0 0 0-.403-.182h-6.364l1.192-5.145 4.444-.008c1.438 0 1.876.716 1.792 1.93l-.005.064a.463.463 0 0 0 .127.381.513.513 0 0 0 .383.163h1.64c.24 0 .446-.16.496-.382L48.174.897a.465.465 0 0 0-.104-.409.536.536 0 0 0-.399-.18H30.435Z" fill="#8F90A6"/></svg><svg fill="none" viewBox="0 0 137 38" id="logo" xmlns="http://www.w3.org/2000/svg"><path d="M103.459 21.587c0 1.864-.285 3.523-.856 4.98-.571 1.457-1.375 2.68-2.41 3.671-1.036.99-2.276 1.742-3.718 2.253-1.442.51-3.05.766-4.822.766-1.773 0-3.38-.27-4.82-.811-1.442-.54-2.682-1.314-3.719-2.32-1.035-1.006-1.84-2.231-2.41-3.672-.57-1.441-.856-3.064-.856-4.867 0-1.772.285-3.38.856-4.82.57-1.442 1.375-2.665 2.41-3.673 1.037-1.006 2.276-1.78 3.718-2.32 1.442-.54 3.048-.811 4.82-.811 1.773 0 3.381.278 4.823.833 1.442.556 2.68 1.337 3.718 2.343 1.037 1.006 1.839 2.231 2.41 3.673.571 1.44.856 3.034.856 4.775Zm-15.77 0c0 1.832.352 3.238 1.058 4.214.707.977 1.69 1.463 2.952 1.463s2.231-.495 2.907-1.487c.676-.99 1.014-2.388 1.014-4.19 0-1.801-.345-3.19-1.037-4.168-.692-.976-1.668-1.463-2.929-1.463-1.26 0-2.238.488-2.928 1.463-.694.976-1.037 2.367-1.037 4.168ZM107.784 32.536a4.816 4.816 0 0 1-1.149-1.487c-.285-.57-.428-1.216-.428-1.937 0-.6.143-1.194.428-1.78a8.29 8.29 0 0 1 1.059-1.645l7.751-9.102h-8.291a7.38 7.38 0 0 1-.519-1.262 5.42 5.42 0 0 1-.247-1.667c0-1.052.233-1.81.699-2.275.464-.466 1.088-.699 1.87-.699h14.193c.481.42.864.918 1.149 1.487.286.57.428 1.217.428 1.938 0 .602-.142 1.195-.428 1.78a8.373 8.373 0 0 1-1.058 1.646l-7.571 9.102h8.832c.18.33.352.751.518 1.261.165.511.248 1.068.248 1.668 0 1.051-.233 1.81-.699 2.274-.466.466-1.09.7-1.87.7h-14.915v-.002ZM128.512 4.555c0-1.141.383-2.101 1.149-2.883.766-.78 1.779-1.173 3.041-1.173 1.261 0 2.276.392 3.042 1.173.766.782 1.149 1.742 1.149 2.883 0 1.142-.383 2.103-1.149 2.884-.766.782-1.78 1.17-3.042 1.17-1.262 0-2.275-.388-3.041-1.17-.766-.78-1.149-1.742-1.149-2.884Zm8.021 27.936c-.33.06-.818.143-1.465.248-.645.105-1.299.157-1.96.157a10.58 10.58 0 0 1-1.78-.136c-.525-.09-.968-.27-1.329-.54a2.601 2.601 0 0 1-.833-1.104c-.197-.466-.293-1.073-.293-1.825V10.953c.33-.06.817-.143 1.464-.247a12.196 12.196 0 0 1 1.96-.158c.66 0 1.254.045 1.779.136.526.09.969.27 1.33.541.361.27.638.638.833 1.104.195.466.293 1.075.293 1.825v18.337h.001ZM53.173 9.961c1.23 0 2.44.174 3.627.519 1.186.345 2.215.863 3.086 1.554.9-.6 1.915-1.097 3.04-1.487 1.127-.39 2.486-.586 4.08-.586 1.141 0 2.26.15 3.356.452 1.097.3 2.073.773 2.93 1.418.855.647 1.538 1.503 2.05 2.57.51 1.065.766 2.364.766 3.896v14.194c-.3.09-.774.18-1.419.27-.646.09-1.315.135-2.005.135-.661 0-1.254-.045-1.78-.136-.526-.09-.968-.269-1.33-.54a2.606 2.606 0 0 1-.832-1.104c-.197-.464-.293-1.073-.293-1.825V18.523c0-.901-.257-1.554-.766-1.96-.511-.406-1.203-.607-2.073-.607-.42 0-.872.097-1.351.292-.48.195-.842.4-1.082.61.029.12.045.232.045.337v15.298c-.33.09-.819.18-1.464.269-.646.09-1.3.135-1.96.135-.661 0-1.254-.045-1.78-.135-.525-.09-.968-.27-1.33-.54a2.583 2.583 0 0 1-.832-1.104c-.197-.465-.293-1.074-.293-1.825V18.525c0-.902-.278-1.554-.833-1.96-.556-.407-1.225-.608-2.005-.608-.54 0-1.007.083-1.397.248-.39.166-.72.323-.992.473v15.816c-.3.09-.773.18-1.418.27-.647.09-1.315.135-2.006.135a10.59 10.59 0 0 1-1.78-.136c-.527-.09-.97-.269-1.33-.54-.36-.27-.64-.638-.834-1.104-.195-.464-.292-1.073-.292-1.825V15.688c0-.812.173-1.457.518-1.937.345-.48.819-.93 1.419-1.352 1.02-.72 2.29-1.306 3.807-1.758 1.516-.454 3.1-.68 4.753-.68Z" fill="#1A2578"/><path d="M7.936 34.697a17.436 17.436 0 0 1-3.993-3.59c.212-.371.303-.8.303-1.276V14.96c.105.076.163.127.228.165 1.088.625 2.175 1.252 3.268 1.865.156.088.185.187.185.346-.002 5.665-.001 11.331-.005 16.997 0 .123.004.244.014.365Zm8.084 2.748a17.242 17.242 0 0 1-4.643-1.018c.593-.42.912-.975.914-1.71.003-4.93.001-9.86.001-14.79v-.35c.386.233.725.449 1.075.645.74.418 1.481.835 2.23 1.234.317.169.435.379.434.76-.015 5.077-.012 10.154-.01 15.23Zm1.375.054h-.011c1.023 0 2.027-.09 3.001-.26.004-5.236.003-10.473 0-15.709 0-.488.006-.98-.061-1.459-.04-.284-.195-.562-.338-.821-.233-.421-.647-.648-1.047-.878-.565-.324-1.132-.643-1.697-.966-.619-.355-1.232-.718-1.852-1.07-.807-.458-1.621-.899-2.424-1.362-.886-.511-1.76-1.043-2.644-1.56-.431-.252-.874-.488-1.31-.735-.857-.485-1.714-.97-2.569-1.458-.533-.305-1.061-.615-1.596-.916-.39-.22-.807-.4-1.175-.648a.928.928 0 0 0-.063-.041A17.41 17.41 0 0 1 8.01 5.557c-.145.46-.113.948.078 1.448.204.534.62.898 1.108 1.176.808.46 1.625.906 2.434 1.366.754.43 1.502.871 2.255 1.305.656.379 1.31.756 1.968 1.13.556.317 1.115.627 1.673.94.443.249.887.495 1.324.751.482.283.952.584 1.438.861.636.364 1.281.712 1.92 1.07.501.282 1 .567 1.499.85.232.13.371.27.37.597-.016 5.607-.01 11.215-.016 16.822 0 .45.065.864.288 1.266.15.269.334.483.545.65a17.392 17.392 0 0 0 3.533-2.263c.012-2.924.004-5.848.004-8.773 0-3.057-.001-6.113.002-9.172a2.53 2.53 0 0 0-.242-1.123c-.197-.41-.49-.72-.874-.945-.616-.361-1.245-.697-1.864-1.053-.903-.518-1.798-1.05-2.701-1.567-.807-.462-1.624-.907-2.432-1.366a654.016 654.016 0 0 1-3.101-1.772c-.753-.433-1.503-.87-2.255-1.307-.557-.324-1.112-.654-1.671-.977-.36-.208-.724-.412-1.088-.614-.312-.172-.644-.314-.935-.515a1.906 1.906 0 0 0-.485-.24 17.282 17.282 0 0 1 5.998-1.292c.11.09.23.172.362.248 1.003.578 2 1.168 3.004 1.745.696.399 1.404.78 2.103 1.176.664.376 1.321.764 1.984 1.14.563.321 1.131.63 1.695.947.444.25.885.504 1.325.762.392.23.775.476 1.171.7.482.273.98.518 1.462.791.664.378 1.317.772 1.978 1.154.169.099.25.207.25.43-.01 5.656-.011 11.312.002 16.969 0 .13.009.263.026.396a17.285 17.285 0 0 0 2.597-9.13v.012c.001 9.583-7.767 17.35-17.347 17.35Z" fill="#D60936"/><path d="M3.93 31.132A17.302 17.302 0 0 1 0 20.128c0-3.964 1.328-7.618 3.564-10.543l.048.03A17.272 17.272 0 0 0 .047 20.152c0 4.155 1.46 7.97 3.897 10.956a.22.22 0 0 1-.015.025Zm7.438 5.301a17.357 17.357 0 0 1-3.43-1.715v-.02c1.07.697 2.223 1.28 3.439 1.73a.042.042 0 0 1-.009.005Zm6.003 1.066c-.454 0-.905-.017-1.351-.05v-.002c.45.035.904.054 1.363.054-.003-.002-.007-.002-.012-.002Z" fill="#E3E3E3"/><path d="M17.384 37.5c-.459 0-.913-.02-1.363-.054-.002-5.076-.005-10.153.011-15.23.002-.381-.116-.59-.434-.76-.75-.4-1.49-.817-2.23-1.233-.349-.198-.688-.414-1.074-.645v.349c0 4.93.001 9.86-.002 14.79 0 .735-.319 1.291-.911 1.709a17.307 17.307 0 0 1-3.442-1.73 4.331 4.331 0 0 1-.014-.366c.004-5.665.003-11.331.006-16.997 0-.159-.03-.257-.185-.345-1.094-.613-2.18-1.24-3.268-1.865-.066-.038-.124-.09-.23-.165V29.831c0 .474-.09.904-.302 1.275A17.274 17.274 0 0 1 .049 20.15c0-3.963 1.328-7.614 3.564-10.535.02.013.04.027.062.04.37.25.785.43 1.175.649.535.301 1.064.611 1.597.915.853.49 1.71.975 2.566 1.46.435.246.876.482 1.307.735.884.517 1.758 1.049 2.645 1.56.803.463 1.618.904 2.424 1.362.62.352 1.233.715 1.852 1.07.565.325 1.132.642 1.697.966.402.23.814.457 1.047.878.143.26.298.536.338.821.067.48.06.973.06 1.46.004 5.235.005 10.472 0 15.708-.972.17-1.975.259-3 .26Z" fill="#BF0830"/><path d="M8.014 5.556c.008-.03.019-.057.029-.086a17.27 17.27 0 0 1 2.665-1.391c.028.007.054.016.082.025-.973.402-1.903.89-2.776 1.452Z" fill="#E3E3E3"/><path d="M24.896 35.79a2.083 2.083 0 0 1-.544-.651c-.223-.402-.289-.817-.289-1.266.006-5.608-.001-11.215.016-16.822.002-.326-.138-.466-.37-.597-.5-.284-.997-.57-1.498-.85-.64-.359-1.286-.707-1.921-1.071-.485-.278-.956-.58-1.438-.86-.438-.257-.882-.503-1.323-.752-.558-.313-1.117-.624-1.674-.94a383.41 383.41 0 0 1-1.967-1.13c-.752-.434-1.5-.875-2.256-1.305-.809-.46-1.625-.906-2.434-1.366-.488-.276-.904-.642-1.108-1.177-.19-.5-.223-.988-.077-1.447a17.204 17.204 0 0 1 2.776-1.45c.167.056.329.135.485.241.29.201.623.34.935.514.364.203.726.407 1.087.615.558.323 1.115.652 1.672.977.752.437 1.502.874 2.255 1.306 1.032.593 2.065 1.184 3.1 1.773.808.458 1.626.904 2.432 1.366.903.517 1.799 1.048 2.702 1.567.619.355 1.248.692 1.864 1.053.383.224.677.534.874.945.172.36.242.728.242 1.121-.003 3.057-.002 6.114-.002 9.172 0 2.925.009 5.85-.004 8.773a17.557 17.557 0 0 1-3.535 2.26Z" fill="#BF0830"/><path d="M34.743 20.14c-.007-9.576-7.771-17.337-17.348-17.337-.204 0-.406.003-.609.01-.019-.014-.036-.03-.054-.046.213-.007.426-.012.64-.012 9.594 0 17.371 7.777 17.371 17.372v.013Z" fill="#E3E3E3"/><path d="M32.145 29.27a3.045 3.045 0 0 1-.026-.397 4705.24 4705.24 0 0 1-.002-16.97c0-.222-.08-.33-.25-.427-.662-.382-1.314-.778-1.978-1.154-.482-.274-.979-.518-1.462-.79-.396-.223-.78-.471-1.171-.7-.44-.257-.881-.51-1.326-.761-.563-.318-1.133-.628-1.695-.947-.662-.377-1.32-.764-1.983-1.14-.7-.396-1.406-.778-2.103-1.177-1.005-.577-2.001-1.166-3.005-1.745a2.76 2.76 0 0 1-.36-.247c.202-.008.404-.01.608-.01 9.577 0 17.342 7.76 17.348 17.336 0 3.348-.95 6.476-2.595 9.128Z" fill="#BF0830"/><path d="M14.323 13.802c.679 0 1.346.096 2.001.285a4.92 4.92 0 0 1 1.703.858 7.395 7.395 0 0 1 1.677-.82c.622-.216 1.37-.323 2.25-.323.63 0 1.247.083 1.851.249a4.721 4.721 0 0 1 1.616.783c.471.357.849.829 1.13 1.417.28.589.422 1.305.422 2.15v7.83c-.166.049-.427.098-.784.148-.356.05-.725.074-1.105.074-.365 0-.692-.025-.982-.074a1.668 1.668 0 0 1-.733-.299 1.45 1.45 0 0 1-.46-.609c-.108-.256-.162-.592-.162-1.006v-5.94c0-.497-.142-.858-.423-1.082-.282-.223-.662-.335-1.143-.335-.233 0-.48.053-.746.161-.265.108-.464.22-.597.335a.797.797 0 0 1 .025.187V26.229c-.182.05-.451.099-.808.148-.357.05-.717.075-1.08.075a5.87 5.87 0 0 1-.982-.075 1.654 1.654 0 0 1-.733-.298 1.44 1.44 0 0 1-.46-.61c-.108-.255-.162-.592-.162-1.005v-5.94c0-.498-.153-.859-.46-1.083-.307-.223-.676-.335-1.105-.335-.299 0-.555.045-.77.137a6.004 6.004 0 0 0-.548.26v8.724c-.166.05-.427.1-.782.149-.357.05-.726.074-1.106.074-.365 0-.692-.025-.981-.074a1.655 1.655 0 0 1-.733-.299 1.45 1.45 0 0 1-.46-.609c-.108-.256-.162-.592-.162-1.006v-7.506c0-.447.095-.804.286-1.069a3.21 3.21 0 0 1 .782-.745c.563-.398 1.264-.721 2.1-.97a9.32 9.32 0 0 1 2.624-.37Z" fill="#fff"/></svg><svg fill="none" viewBox="0 0 118 28" id="reno" xmlns="http://www.w3.org/2000/svg"><path d="M11.347-2.035c-.414.78-6 11.304-8.407 15.826-.084.157-.077.27.004.423 2.358 4.43 7.136 13.42 7.186 13.503.05-.083 4.827-9.072 7.185-13.502.081-.153.088-.267.004-.423-1.349-2.527-2.689-5.059-4.038-7.586-.087-.161-.093-.282-.003-.445.371-.673.727-1.355 1.102-2.062.054.092 3.63 6.813 5.382 10.106.074.138.08.242.005.385a11801.94 11801.94 0 0 0-8.312 15.65c-.074.14-.149.203-.317.2a77.865 77.865 0 0 0-2.056-.001c-.127.001-.194-.04-.254-.153C6.047 24.64 3.263 19.397.476 14.156c-.057-.11-.063-.191-.003-.304C3.261 8.608 6.043 3.365 8.831-1.877c.035-.066.118-.15.18-.151.765-.011 1.53-.007 2.336-.007Z" fill="#8F90A6"/><path d="M14.517 1.176c-1.275 2.393-4.791 9.007-6.707 12.609-.082.153-.088.267-.004.422 1.349 2.528 2.689 5.06 4.038 7.586.087.162.091.282.002.445-.371.673-.727 1.355-1.103 2.063-.05-.086-3.625-6.808-5.382-10.107-.074-.139-.08-.242-.004-.385C8.13 8.595 10.9 3.38 13.668-1.84c.075-.14.15-.202.317-.2a77.91 77.91 0 0 0 2.056.002c.128-.001.194.04.254.154 2.782 5.245 5.566 10.489 8.352 15.73.059.11.063.192.003.304-2.787 5.242-5.57 10.486-8.357 15.727-.036.066-.118.15-.18.15-.765.011-1.53.007-2.33.007.052-.103 5.641-10.638 8.402-15.826.083-.157.077-.27-.005-.423C19.822 9.354 15.044.364 14.994.281c-.009.016-.184.343-.477.895ZM34.093 20.813h-2.617V9.36c0-.146-.016-.241-.049-.288-.033-.046-.114-.096-.246-.148l-.708-.278.215-1.149h6.61c1.704 0 2.931.327 3.678.98.748.654 1.121 1.708 1.121 3.16 0 1.15-.233 2.035-.698 2.655-.466.622-1.19 1.024-2.174 1.21l3.227 5.31h-2.89L36.63 15.8h-2.537v5.012Zm0-6.994h2.91c.906 0 1.552-.165 1.939-.496.386-.33.58-.89.58-1.684 0-.779-.194-1.335-.58-1.664-.387-.33-1.033-.496-1.938-.496h-2.91v4.34ZM54.237 7.5v2.02h-6.925v3.548h5.51v1.94h-5.51v3.786h7.082v2.02h-9.697V9.365c0-.147-.016-.242-.05-.288-.033-.047-.114-.096-.245-.149l-.709-.277.216-1.15h10.328ZM56.56 9.36c0-.145-.017-.24-.05-.287-.033-.046-.114-.096-.246-.148l-.708-.278.215-1.149h2.952c.197 0 .324.024.384.07.059.047.166.175.324.387l6.788 9.252V7.5h2.42v13.313H66.1l-7.12-9.708v9.707h-2.42V9.361h-.002ZM77.982 7.5c.262.475.544 1.046.846 1.713a77.86 77.86 0 0 1 1.888 4.606 94.816 94.816 0 0 1 1.672 4.913c.237.766.433 1.46.59 2.08h-2.636a49.66 49.66 0 0 0-.452-1.585 97.77 97.77 0 0 1-.453-1.526h-5.823a79.237 79.237 0 0 0-.905 3.111h-2.636c.158-.621.355-1.314.591-2.08a90.702 90.702 0 0 1 1.673-4.913 75.81 75.81 0 0 1 1.888-4.606c.301-.667.584-1.238.846-1.714h2.91Zm-1.457 2.336a67.283 67.283 0 0 0-2.282 5.924h4.564a89.305 89.305 0 0 0-2.282-5.924ZM84.296 9.36c0-.145-.018-.24-.05-.287-.033-.046-.114-.096-.246-.148l-.708-.278.216-1.149h3.226c.118 0 .177.066.177.199v7.706c0 1.268.27 2.179.807 2.735.537.554 1.409.831 2.617.831 1.219 0 2.095-.277 2.627-.831.531-.555.796-1.466.796-2.735V7.498h2.617v8.103c0 .964-.115 1.79-.345 2.477-.229.687-.586 1.251-1.072 1.693-.485.442-1.112.766-1.878.971-.767.205-1.681.307-2.744.307-1.063 0-1.977-.102-2.744-.306-.768-.205-1.394-.528-1.879-.972-.485-.442-.842-1.006-1.071-1.693-.23-.687-.345-1.512-.345-2.477v-6.24h-.001ZM99.404 9.36c0-.145-.016-.24-.05-.287-.033-.046-.114-.096-.245-.148l-.709-.278.216-1.149h3.227c.117 0 .176.066.176.199V18.79h6.039v2.021h-8.656V9.361h.002ZM110.893 9.52h-4.289V7.498h11.194V9.52h-4.288v11.293h-2.617V9.52Z" fill="#8F90A6"/></svg><svg fill="none" viewBox="0 0 149 26" id="toyota" xmlns="http://www.w3.org/2000/svg"><path fill-rule="evenodd" clip-rule="evenodd" d="M17.73 23.952c-1.964-1.23-3.41-5.472-3.41-10.513 0-.185 0-.367.005-.55C8.865 12.03 4.92 9.68 4.819 6.9l-.016.033c-1.335 1.66-2.098 3.58-2.098 5.624 0 6.018 6.61 10.95 14.985 11.389l.036.007.003-.001ZM.184 12.999C.185 6.266 8.565.807 18.9.807 29.24.807 37.62 6.266 37.62 12.999c0 6.734-8.381 12.194-18.718 12.194C8.563 25.193.184 19.733.184 13ZM18.9 2.566c1.997 0 3.694 3.027 4.323 7.25v-.005c3.882-.61 6.6-2 6.6-3.621 0-2.177-4.89-3.94-10.925-3.94-6.033 0-10.924 1.763-10.924 3.94 0 1.622 2.718 3.016 6.6 3.62v.007c.63-4.224 2.327-7.251 4.323-7.251h.003Zm1.209 21.379c8.38-.436 14.986-5.367 14.986-11.389 0-2.045-.763-3.966-2.1-5.624l-.015-.033c-.102 2.78-4.045 5.13-9.505 5.989 0 .183.006.365.006.55 0 5.041-1.447 9.283-3.408 10.513l.034-.007h.002ZM18.9 10.13c.895 0 1.764-.039 2.596-.112-.414-2.707-1.424-4.618-2.595-4.618-1.17 0-2.178 1.911-2.593 4.618.831.073 1.7.112 2.595.112H18.9Zm0 10.027c1.503 0 2.729-3.127 2.794-7.049h.008c-.905.084-1.843.127-2.802.127-.958 0-1.895-.043-2.8-.127h.007c.065 3.922 1.292 7.049 2.793 7.049ZM95.693 12.999a9.32 9.32 0 1 1 18.64-.002 9.32 9.32 0 0 1-18.64.002Zm9.32 5.898c2.874 0 5.204-2.644 5.204-5.898 0-3.254-2.33-5.898-5.204-5.898-2.875 0-5.203 2.644-5.203 5.898 0 3.254 2.329 5.898 5.203 5.898ZM124.907 7.562v14.333h-3.926V7.562h.013-5.492v-3.24h14.882v3.24h-5.477ZM135.135 17.94l-1.506 3.951h-4.586l7.25-17.573h4.887l7.25 17.573h-4.586l-1.507-3.95h-7.202Zm3.598-2.965h2.469l-2.452-6.433h-.035l-2.452 6.432h2.47ZM52.526 7.562v14.333h-3.927V7.562h.014-5.492v-3.24h14.883v3.24H52.526ZM59.005 12.999a9.32 9.32 0 1 1 18.64-.002 9.32 9.32 0 0 1-18.64.002Zm9.32 5.898c2.874 0 5.204-2.644 5.204-5.898 0-3.254-2.33-5.898-5.204-5.898-2.873 0-5.204 2.644-5.204 5.898 0 3.254 2.33 5.898 5.204 5.898ZM86.67 21.895h1.99v-6.672l6.852-10.9h-4.586l-4.255 7.386-4.257-7.387h-4.586l6.852 10.9v6.673h1.99Z" fill="#8F90A6"/></svg></svg>